<svg width="24" height="24" fill="none" xmlns="http://www.w3.org/2000/svg"><path d="M15.967 12.697a1 1 0 1 0-1.434-1.394l-3.26 3.349-1.397-1.121a1 1 0 1 0-1.251 1.56l2.46 1.973a.5.5 0 0 0 .672-.041l4.21-4.325Z" fill="#667085"/><path fill-rule="evenodd" clip-rule="evenodd" d="M8 2a1 1 0 0 1 1 1h6a1 1 0 1 1 2 0h1a3 3 0 0 1 3 3v13a3 3 0 0 1-3 3H6a3 3 0 0 1-3-3V6a3 3 0 0 1 3-3h1a1 1 0 0 1 1-1Zm11 4v1H5V6a1 1 0 0 1 1-1h1a1 1 0 0 0 2 0h6a1 1 0 1 0 2 0h1a1 1 0 0 1 1 1ZM5 19V9h14v10a1 1 0 0 1-1 1H6a1 1 0 0 1-1-1Z" fill="#667085"/></svg>