<svg width="20" height="20" fill="none" xmlns="http://www.w3.org/2000/svg"><path fill-rule="evenodd" clip-rule="evenodd" d="M7.5 2.5a.833.833 0 1 0-1.667 0H5A2.5 2.5 0 0 0 2.5 5v10.833a2.5 2.5 0 0 0 2.5 2.5h10a2.5 2.5 0 0 0 2.5-2.5V5A2.5 2.5 0 0 0 15 2.5h-.833a.833.833 0 0 0-1.667 0h-5Zm8.333 3.333V5A.833.833 0 0 0 15 4.167h-.833a.833.833 0 0 1-1.667 0h-5a.833.833 0 1 1-1.667 0H5A.833.833 0 0 0 4.167 5v.833h11.666ZM4.167 7.5v8.333c0 .46.373.834.833.834h10c.46 0 .833-.373.833-.834V7.5H4.167Z" fill="#667085"/></svg>