<svg width="24" height="24" fill="none" xmlns="http://www.w3.org/2000/svg"><path d="M6.638 4.122A2 2 0 0 0 4.674 2.5H3a1 1 0 0 0 0 2h1.674l1.876 9.755a4 4 0 0 0 3.928 3.245h6.21a4 4 0 0 0 3.868-2.982l1.25-4.755A3 3 0 0 0 18.907 6H17.5a1 1 0 1 0 0 2h1.406a1 1 0 0 1 .967 1.254L18.62 14.01a2 2 0 0 1-1.934 1.491h-6.209a2 2 0 0 1-1.964-1.622L7.384 8H10a1 1 0 1 0 0-2H7l-.362-1.878ZM8.75 21.5a1.5 1.5 0 1 1 0-3 1.5 1.5 0 0 1 0 3ZM17.5 21.5a1.5 1.5 0 1 1 0-3 1.5 1.5 0 0 1 0 3Z" fill="#5C59E8"/><path d="M10.043 9.793a1 1 0 0 1 1.414 0l1.293 1.293V4a1 1 0 1 1 2 0v7.086l1.293-1.293a1 1 0 1 1 1.414 1.414l-3.353 3.354a.5.5 0 0 1-.708 0l-3.353-3.354a1 1 0 0 1 0-1.414Z" fill="#5C59E8"/></svg>