<svg width="24" height="24" fill="none" xmlns="http://www.w3.org/2000/svg"><path fill-rule="evenodd" clip-rule="evenodd" d="M6.638 4.122A2 2 0 0 0 4.674 2.5H3a1 1 0 0 0 0 2h1.674l1.876 9.755a4 4 0 0 0 3.928 3.245h6.21a4 4 0 0 0 3.868-2.982l1.25-4.755A3 3 0 0 0 18.907 6H6.999l-.361-1.878ZM7.384 8l1.13 5.878a2 2 0 0 0 1.964 1.622h6.21a2 2 0 0 0 1.934-1.491l1.25-4.755A1 1 0 0 0 18.907 8H7.384Z" fill="#E46A11"/><path d="M8.75 21.5a1.5 1.5 0 1 1 0-3 1.5 1.5 0 0 1 0 3ZM17.5 21.5a1.5 1.5 0 1 1 0-3 1.5 1.5 0 0 1 0 3Z" fill="#E46A11"/></svg>