<svg width="24" height="24" fill="none" xmlns="http://www.w3.org/2000/svg"><path d="M15.967 10.447a1 1 0 1 0-1.434-1.394l-3.26 3.349-1.397-1.121a1 1 0 1 0-1.251 1.56l2.46 1.973a.5.5 0 0 0 .672-.041l4.21-4.325Z" fill="#5C59E8"/><path fill-rule="evenodd" clip-rule="evenodd" d="M2 7a3 3 0 0 1 3-3h14a3 3 0 0 1 3 3v10a3 3 0 0 1-3 3H5a3 3 0 0 1-3-3V7Zm16.17-1H19a1 1 0 0 1 1 1v.83A3.008 3.008 0 0 1 18.17 6ZM16.1 6H7.9A5.006 5.006 0 0 1 4 9.9v4.2A5.006 5.006 0 0 1 7.9 18h8.2a5.006 5.006 0 0 1 3.9-3.9V9.9A5.006 5.006 0 0 1 16.1 6ZM20 16.17A3.009 3.009 0 0 0 18.17 18H19a1 1 0 0 0 1-1v-.83ZM5.83 18A3.008 3.008 0 0 0 4 16.17V17a1 1 0 0 0 1 1h.83ZM4 7.83A3.008 3.008 0 0 0 5.83 6H5a1 1 0 0 0-1 1v.83Z" fill="#5C59E8"/></svg>