<svg width="24" height="24" fill="none" xmlns="http://www.w3.org/2000/svg"><path fill-rule="evenodd" clip-rule="evenodd" d="M11 20a1 1 0 1 0 2 0v-.253a4.682 4.682 0 0 0 4.5-4.679A4.068 4.068 0 0 0 13.432 11H13V6.274a3.264 3.264 0 0 1 2.047 1.075c.367.414.948.657 1.453.432.505-.224.74-.823.424-1.276A5.264 5.264 0 0 0 13 4.265V4a1 1 0 1 0-2 0v.253a4.682 4.682 0 0 0-4.5 4.679A4.068 4.068 0 0 0 10.568 13H11v4.726a3.263 3.263 0 0 1-2.047-1.075c-.367-.414-.948-.657-1.453-.432-.505.224-.74.823-.424 1.276A5.264 5.264 0 0 0 11 19.735V20Zm2-2.256a2.682 2.682 0 0 0 2.5-2.676A2.068 2.068 0 0 0 13.432 13H13v4.744ZM11 11V6.256a2.682 2.682 0 0 0-2.5 2.676c0 1.142.926 2.068 2.068 2.068H11Z" fill="#667085"/></svg>