<svg width="21" height="20" fill="none" xmlns="http://www.w3.org/2000/svg"><path d="m9.875 11.322-1.077-1.078a.833.833 0 1 0-1.179 1.179l2.795 2.794a.417.417 0 0 0 .589 0l2.795-2.794a.833.833 0 0 0-1.179-1.179l-1.077 1.078V3.333a.833.833 0 0 0-1.667 0v7.989Z" fill="#5C59E8"/><path d="M3.833 11.667c.46 0 .834.373.834.833v1.667c0 .92.746 1.666 1.666 1.666h8.334c.92 0 1.666-.746 1.666-1.666V12.5a.833.833 0 0 1 1.667 0v1.667a3.333 3.333 0 0 1-3.333 3.333H6.333A3.333 3.333 0 0 1 3 14.167V12.5c0-.46.373-.833.833-.833Z" fill="#5C59E8"/></svg>