<svg width="20" height="20" fill="none" xmlns="http://www.w3.org/2000/svg"><path d="M13.09 6.006a.833.833 0 0 1-1.18 0l-1.077-1.078v7.989a.833.833 0 0 1-1.666 0V4.928L8.089 6.006a.833.833 0 0 1-1.178-1.179l2.794-2.794a.417.417 0 0 1 .59 0l2.794 2.794a.833.833 0 0 1 0 1.179Z" fill="#5C59E8"/><path d="M15 7.083a3.333 3.333 0 0 1 3.333 3.334v4.166A3.333 3.333 0 0 1 15 17.917H5a3.333 3.333 0 0 1-3.333-3.334v-4.166A3.333 3.333 0 0 1 5 7.083h1.667a.833.833 0 0 1 0 1.667H5c-.92 0-1.667.746-1.667 1.667v4.166c0 .92.747 1.667 1.667 1.667h10c.92 0 1.667-.746 1.667-1.667v-4.166c0-.92-.747-1.667-1.667-1.667h-1.667a.833.833 0 0 1 0-1.667H15Z" fill="#5C59E8"/></svg>