<svg width="20" height="20" fill="none" xmlns="http://www.w3.org/2000/svg"><path d="M13.09 6.006a.833.833 0 0 1-1.18 0L10.834 4.93v7.988a.833.833 0 0 1-1.666 0V4.93L8.089 6.006a.833.833 0 0 1-1.178-1.178l2.794-2.795a.417.417 0 0 1 .59 0l2.794 2.795a.833.833 0 0 1 0 1.178Z" fill="#5C59E8"/><path d="M15 7.084a3.333 3.333 0 0 1 3.333 3.333v4.167A3.333 3.333 0 0 1 15 17.917H5a3.333 3.333 0 0 1-3.333-3.333v-4.167A3.333 3.333 0 0 1 5 7.084h1.667a.833.833 0 0 1 0 1.666H5c-.92 0-1.667.747-1.667 1.667v4.167c0 .92.747 1.666 1.667 1.666h10c.92 0 1.667-.746 1.667-1.666v-4.167c0-.92-.747-1.667-1.667-1.667h-1.667a.833.833 0 0 1 0-1.666H15Z" fill="#5C59E8"/></svg>