<svg width="21" height="20" fill="none" xmlns="http://www.w3.org/2000/svg"><path fill-rule="evenodd" clip-rule="evenodd" d="M10.333 4.167c5.108 0 7.526 3.425 8.377 5.026.27.51.27 1.104 0 1.614-.851 1.601-3.269 5.026-8.377 5.026-5.108 0-7.525-3.425-8.376-5.026a1.705 1.705 0 0 1 0-1.614c.85-1.601 3.268-5.026 8.376-5.026ZM6.03 7.065c-1.383.916-2.191 2.138-2.602 2.91a.08.08 0 0 0-.007.018v.014c0 .003.003.01.007.018.41.772 1.219 1.994 2.602 2.91A5.184 5.184 0 0 1 5.125 10c0-1.089.334-2.1.905-2.935Zm8.606 5.87c1.384-.916 2.192-2.138 2.602-2.91a.08.08 0 0 0 .007-.018l.001-.005V9.993a.081.081 0 0 0-.008-.018c-.41-.772-1.218-1.994-2.602-2.91.572.836.906 1.846.906 2.935s-.335 2.1-.906 2.935ZM6.792 10a3.542 3.542 0 1 1 7.083 0 3.542 3.542 0 0 1-7.083 0Z" fill="#667085"/></svg>