<svg width="20" height="20" fill="none" xmlns="http://www.w3.org/2000/svg"><path fill-rule="evenodd" clip-rule="evenodd" d="M10 4.167c5.108 0 7.526 3.425 8.377 5.026.27.51.27 1.104 0 1.614-.851 1.601-3.269 5.026-8.377 5.026-5.108 0-7.526-3.425-8.377-5.026a1.705 1.705 0 0 1 0-1.614C2.474 7.592 4.892 4.167 10 4.167ZM5.697 7.065c-1.384.917-2.192 2.138-2.602 2.91a.08.08 0 0 0-.007.018L3.087 10v.007l.008.018c.41.772 1.218 1.994 2.602 2.91A5.184 5.184 0 0 1 4.792 10c0-1.089.334-2.1.905-2.935Zm8.606 5.87c1.384-.916 2.191-2.138 2.602-2.91a.077.077 0 0 0 .008-.023V9.993a.078.078 0 0 0-.008-.018c-.41-.772-1.218-1.993-2.602-2.91.571.836.905 1.846.905 2.935s-.334 2.1-.905 2.935ZM6.458 10a3.542 3.542 0 1 1 7.084 0 3.542 3.542 0 0 1-7.084 0Z" fill="#667085"/></svg>