<svg width="28" height="28" fill="none" xmlns="http://www.w3.org/2000/svg"><path d="M9.333 12.25a1.75 1.75 0 1 0 0-3.5 1.75 1.75 0 0 0 0 3.5Z" fill="#5C59E8"/><path fill-rule="evenodd" clip-rule="evenodd" d="M6.708 3.208a3.5 3.5 0 0 0-3.5 3.5v14.584a3.5 3.5 0 0 0 3.5 3.5h14.584a3.5 3.5 0 0 0 3.5-3.5V6.708a3.5 3.5 0 0 0-3.5-3.5H6.708Zm14.584 2.334H6.708c-.644 0-1.166.522-1.166 1.166v9.063l2.915-1.794a.583.583 0 0 1 .63.011l3.11 2.075 4.945-3.846a.583.583 0 0 1 .716 0l4.6 3.578V6.708c0-.644-.522-1.166-1.166-1.166Zm-15.75 15.75V18.51l3.183-1.959 3.578 2.385 5.197-4.042 4.958 3.856v2.54c0 .645-.522 1.167-1.166 1.167H6.708a1.167 1.167 0 0 1-1.166-1.166Z" fill="#5C59E8"/></svg>