<svg width="652" height="210" fill="none" xmlns="http://www.w3.org/2000/svg"><path d="M2 64H1v145h650V75h-1c-2.357 0-4.356 1.27-6.083 2.937-1.714 1.655-3.3 3.838-4.819 5.93l-.032.045c-1.557 2.145-3.047 4.191-4.622 5.712-1.576 1.521-3.097 2.376-4.694 2.376-.662 0-1.37-.3-2.152-.994-.787-.698-1.58-1.736-2.382-3.056-1.606-2.645-3.119-6.195-4.671-9.842l-.022-.051c-1.526-3.587-3.092-7.265-4.78-10.045-.849-1.398-1.763-2.626-2.763-3.514-1.004-.891-2.165-1.498-3.48-1.498-1.326 0-2.491.633-3.493 1.552-.998.917-1.91 2.185-2.758 3.63-1.686 2.872-3.25 6.674-4.778 10.386l-.021.052c-1.551 3.77-3.066 7.447-4.674 10.186-.803 1.368-1.597 2.444-2.386 3.168-.786.721-1.489 1.026-2.14 1.026-2.442 0-4.458 1.617-6.154 3.639-1.705 2.032-3.283 4.716-4.804 7.305l-.029.049c-1.555 2.647-3.054 5.191-4.641 7.083-1.607 1.916-3.11 2.924-4.622 2.924-.697 0-1.418-.283-2.194-.9-.782-.622-1.569-1.546-2.366-2.723-1.6-2.361-3.109-5.534-4.662-8.806l-.024-.051c-1.525-3.212-3.094-6.518-4.788-9.018-.854-1.26-1.772-2.368-2.777-3.167C551.177 88.53 550.03 88 548.75 88c-1.575 0-3.091-.894-4.674-2.512-1.578-1.613-3.07-3.784-4.626-6.053l-.033-.048c-1.519-2.216-3.102-4.524-4.814-6.274-1.72-1.757-3.724-3.113-6.103-3.113-4.219 0-7.503 1.863-10.54 3.586l-.078.044c-3.112 1.765-5.979 3.37-9.632 3.37-1.619 0-3.147-.815-4.716-2.24-1.573-1.43-3.06-3.352-4.617-5.37l-.034-.044c-1.518-1.969-3.105-4.027-4.822-5.586C492.327 62.185 490.335 61 488 61c-.639 0-1.339-.31-2.128-1.057-.791-.75-1.586-1.865-2.391-3.28-1.61-2.834-3.126-6.637-4.677-10.533l-.02-.05c-1.528-3.838-3.091-7.764-4.776-10.73-.847-1.49-1.757-2.798-2.754-3.743-.998-.947-2.166-1.607-3.504-1.607-.662 0-1.37-.3-2.152-.994-.787-.698-1.58-1.736-2.382-3.056-1.606-2.645-3.119-6.195-4.671-9.842l-.021-.05c-1.527-3.587-3.092-7.266-4.781-10.046-.849-1.398-1.763-2.626-2.763-3.514C449.976 1.607 448.815 1 447.5 1c-1.51 0-2.706 1.109-3.637 2.449-.965 1.388-1.853 3.316-2.688 5.544-1.669 4.454-3.222 10.367-4.756 16.212l-.011.041c-1.547 5.892-3.077 11.711-4.706 16.06-.817 2.178-1.635 3.921-2.457 5.104-.855 1.23-1.528 1.59-1.995 1.59-4.251 0-7.553 2.141-10.576 4.1l-.093.06C413.458 54.186 410.614 56 407 56s-6.458-1.815-9.581-3.84l-.093-.06c-3.023-1.959-6.325-4.1-10.576-4.1-3.694 0-6.585-1.391-9.688-2.9l-.064-.03c-3.05-1.483-6.313-3.07-10.498-3.07-2.462 0-4.481 1.705-6.169 3.813-1.703 2.126-3.278 4.935-4.8 7.648l-.028.05c-1.555 2.771-3.056 5.441-4.645 7.426-1.615 2.018-3.116 3.063-4.608 3.063-.628 0-1.324-.314-2.117-1.09-.792-.775-1.589-1.928-2.395-3.392-1.612-2.928-3.129-6.857-4.68-10.878l-.019-.05c-1.529-3.963-3.091-8.013-4.775-11.072-.845-1.537-1.754-2.883-2.748-3.858-.995-.974-2.167-1.66-3.516-1.66-2.357 0-4.356 1.27-6.083 2.937-1.714 1.655-3.3 3.838-4.818 5.93l-.033.046c-1.557 2.144-3.047 4.19-4.622 5.711-1.576 1.521-3.097 2.376-4.694 2.376-4.31 0-7.64 2.699-10.632 5.123l-.123.1C291.848 56.773 289.039 59 285.5 59c-4.149 0-7.388 1.312-10.449 2.553l-.051.02c-3.095 1.254-6.014 2.427-9.75 2.427-3.504 0-6.299-2.43-9.46-5.246l-.138-.123C252.677 55.977 249.337 53 245 53c-4.337 0-7.677 2.977-10.652 5.63l-.138.123C231.049 61.57 228.254 64 224.75 64c-4.149 0-7.388 1.312-10.449 2.552l-.051.021C211.155 67.827 208.236 69 204.5 69c-2.335 0-4.327 1.185-6.061 2.76-1.717 1.56-3.304 3.617-4.822 5.586l-.034.043c-1.557 2.019-3.044 3.942-4.617 5.37-1.569 1.426-3.097 2.241-4.716 2.241-4.337 0-7.677 2.977-10.652 5.63l-.138.124C170.299 93.57 167.504 96 164 96c-1.554 0-3.064-.933-4.655-2.649-1.581-1.705-3.075-4-4.631-6.396l-.032-.048c-1.519-2.34-3.101-4.774-4.81-6.618C148.16 78.442 146.15 77 143.75 77c-.685 0-1.402-.289-2.179-.931-.784-.648-1.573-1.61-2.372-2.834-1.601-2.456-3.112-5.754-4.665-9.15l-.023-.051c-1.525-3.338-3.093-6.768-4.785-9.362-.852-1.306-1.769-2.454-2.773-3.283-1.009-.834-2.161-1.389-3.453-1.389-1.417 0-2.603.851-3.574 1.98-.983 1.143-1.881 2.725-2.721 4.537-1.677 3.617-3.235 8.412-4.766 13.128l-.015.046c-1.549 4.77-3.073 9.455-4.693 12.951-.811 1.75-1.618 3.137-2.423 4.073-.816.949-1.498 1.285-2.058 1.285-3.614 0-6.458-1.815-9.581-3.84l-.093-.06C90.553 82.142 87.251 80 83 80c-2.335 0-4.327 1.185-6.06 2.76-1.718 1.56-3.305 3.617-4.823 5.586l-.034.043c-1.557 2.019-3.044 3.942-4.617 5.37C65.896 95.186 64.369 96 62.75 96c-1.454 0-2.95-1.119-4.582-3.342-1.595-2.172-3.1-5.094-4.654-8.115l-.026-.051c-1.523-2.963-3.095-6.02-4.794-8.334C47.024 73.881 45 72 42.5 72c-4.074 0-7.257.774-10.333 1.522l-.028.006C29.053 74.278 26.072 75 22.25 75c-3.504 0-6.3-2.43-9.46-5.246l-.138-.124C9.677 66.977 6.337 64 2 64Z" fill="url('#paint0_linear_102_5719')" fill-opacity=".5" stroke="#5C59E8" stroke-width="2"/><defs><linearGradient id="paint0_linear_102_5719" x1="326" y1="-56.713" x2="326" y2="199.171" gradientUnits="userSpaceOnUse"><stop stop-color="#7D7AED"/><stop offset=".999" stop-color="#fff" stop-opacity="0"/></linearGradient></defs></svg>