<svg width="652" height="190" fill="none" xmlns="http://www.w3.org/2000/svg"><path d="M2 68H1v121h650V31h-1c-2.357 0-4.356 1.27-6.083 2.937-1.714 1.655-3.3 3.838-4.818 5.93l-.033.046c-1.557 2.144-3.047 4.19-4.622 5.711-1.576 1.521-3.097 2.376-4.694 2.376-1.383 0-2.564.768-3.547 1.822-.989 1.058-1.892 2.523-2.734 4.197-1.681 3.339-3.241 7.763-4.771 12.103l-.016.045c-1.55 4.396-3.071 8.703-4.687 11.915-.809 1.607-1.611 2.876-2.41 3.732-.803.86-1.491 1.186-2.085 1.186-3.866 0-6.88-.487-9.965-.987l-.018-.003c-3.081-.5-6.232-1.01-10.267-1.01-.685 0-1.402-.289-2.179-.931-.784-.648-1.573-1.61-2.372-2.834-1.601-2.456-3.112-5.754-4.665-9.15l-.023-.052c-1.525-3.337-3.093-6.767-4.785-9.36-.852-1.307-1.769-2.455-2.773-3.284C571.444 54.555 570.292 54 569 54c-4.185 0-7.448 1.587-10.498 3.07l-.064.03c-3.103 1.509-5.994 2.9-9.688 2.9-2.291 0-4.266 1.018-6.01 2.405-1.721 1.367-3.313 3.173-4.831 4.895l-.034.039c-1.557 1.766-3.04 3.444-4.609 4.69C531.708 73.27 530.163 74 528.5 74c-.081 0-.311-.045-.692-.48-.374-.425-.782-1.107-1.212-2.065-.854-1.91-1.69-4.688-2.512-8.096-1.641-6.802-3.178-15.888-4.723-25.026l-.005-.032c-1.539-9.102-3.086-18.253-4.746-25.13-.829-3.435-1.699-6.36-2.631-8.443-.464-1.037-.97-1.925-1.533-2.567C509.889 1.526 509.157 1 508.25 1c-2.501 0-4.523 1.881-6.194 4.158-1.699 2.314-3.271 5.372-4.794 8.334l-.026.05c-1.554 3.022-3.059 5.944-4.654 8.116C490.951 23.881 489.454 25 488 25c-1.361 0-2.536.713-3.527 1.714-.992 1.003-1.899 2.39-2.743 3.971-1.683 3.153-3.244 7.328-4.774 11.416l-.018.049c-1.55 4.145-3.069 8.2-4.682 11.223-.807 1.511-1.606 2.703-2.4 3.505-.796.804-1.49 1.122-2.106 1.122-3.736 0-6.655-1.173-9.75-2.427l-.051-.02c-3.061-1.24-6.3-2.553-10.449-2.553-2.481 0-4.503 1.793-6.182 3.986-1.701 2.22-3.274 5.153-4.797 7.99l-.027.051c-1.554 2.897-3.058 5.692-4.65 7.771-1.623 2.12-3.121 3.202-4.594 3.202-1.619 0-3.147-.815-4.716-2.24-1.573-1.43-3.06-3.352-4.617-5.37l-.034-.044c-1.518-1.969-3.105-4.027-4.822-5.586C411.327 61.185 409.335 60 407 60c-3.614 0-6.458-1.815-9.581-3.84l-.093-.06c-3.023-1.959-6.325-4.1-10.576-4.1-4.31 0-7.64 2.699-10.632 5.123l-.123.1C372.848 59.773 370.039 62 366.5 62c-4.185 0-7.448 1.587-10.498 3.07l-.064.03c-3.103 1.509-5.994 2.9-9.688 2.9-1.454 0-2.951-1.119-4.582-3.342-1.595-2.172-3.1-5.094-4.654-8.115l-.026-.051c-1.523-2.962-3.095-6.02-4.794-8.334C330.523 45.881 328.501 44 326 44c-2.357 0-4.356 1.27-6.083 2.937-1.714 1.655-3.3 3.838-4.818 5.93l-.033.046c-1.557 2.144-3.047 4.19-4.622 5.711-1.576 1.521-3.097 2.376-4.694 2.376-4.31 0-7.64 2.699-10.632 5.124l-.123.099C291.848 68.773 289.039 71 285.5 71c-3.504 0-6.299-2.43-9.46-5.246l-.138-.124c-2.975-2.653-6.315-5.63-10.652-5.63-2.442 0-4.458 1.617-6.154 3.639-1.706 2.032-3.283 4.716-4.804 7.305l-.029.05c-1.555 2.645-3.054 5.19-4.641 7.082C248.015 79.992 246.512 81 245 81c-1.686 0-3.24-.689-4.794-1.836-1.568-1.157-3.049-2.713-4.606-4.353l-.034-.036c-1.519-1.6-3.112-3.277-4.834-4.548-1.748-1.29-3.714-2.227-5.982-2.227-.685 0-1.402-.289-2.179-.931-.784-.648-1.573-1.61-2.372-2.834-1.601-2.456-3.112-5.754-4.665-9.15l-.023-.052c-1.525-3.337-3.093-6.767-4.785-9.36-.852-1.307-1.769-2.455-2.773-3.284-1.009-.834-2.161-1.389-3.453-1.389-1.454 0-2.951-1.119-4.582-3.342-1.595-2.172-3.1-5.094-4.654-8.115l-.026-.051c-1.523-2.963-3.095-6.02-4.794-8.334-1.671-2.277-3.693-4.158-6.194-4.158-1.292 0-2.444.555-3.453 1.39-1.004.828-1.921 1.976-2.773 3.282-1.692 2.594-3.26 6.024-4.785 9.361l-.023.051c-1.553 3.397-3.064 6.695-4.665 9.15-.799 1.226-1.588 2.187-2.372 2.835-.777.642-1.494.931-2.179.931-1.315 0-2.476.607-3.48 1.498-1 .888-1.914 2.116-2.763 3.514-1.689 2.78-3.254 6.458-4.781 10.046l-.021.05c-1.552 3.647-3.065 7.197-4.671 9.842-.802 1.32-1.595 2.358-2.382 3.056-.782.695-1.49.994-2.152.994-3.504 0-6.299-2.43-9.46-5.246l-.138-.124C131.177 64.977 127.837 62 123.5 62c-3.539 0-6.348-2.227-9.495-4.777l-.123-.1C110.89 54.7 107.56 52 103.25 52c-1.349 0-2.521.686-3.516 1.66-.994.975-1.903 2.322-2.748 3.858-1.684 3.06-3.246 7.11-4.775 11.073l-.019.05c-1.55 4.02-3.068 7.949-4.68 10.877-.805 1.463-1.603 2.617-2.395 3.392-.793.776-1.49 1.09-2.117 1.09-2.335 0-4.327 1.185-6.06 2.76-1.718 1.56-3.305 3.617-4.823 5.586l-.034.043c-1.557 2.019-3.044 3.942-4.617 5.37-1.57 1.426-3.097 2.241-4.716 2.241-1.454 0-2.95-1.119-4.582-3.342-1.595-2.172-3.1-5.094-4.654-8.115l-.026-.051c-1.523-2.963-3.095-6.02-4.794-8.334C47.024 77.881 45 76 42.5 76c-4.074 0-7.257.774-10.333 1.522l-.028.006C29.053 78.278 26.072 79 22.25 79c-3.504 0-6.3-2.43-9.46-5.246l-.138-.124C9.677 70.977 6.337 68 2 68Z" fill="url('#paint0_linear_102_5720')" fill-opacity=".5" stroke="#E46A11" stroke-width="2"/><defs><linearGradient id="paint0_linear_102_5720" x1="326" y1="-109.196" x2="326" y2="178.088" gradientUnits="userSpaceOnUse"><stop stop-color="#E98841"/><stop offset=".999" stop-color="#fff" stop-opacity="0"/></linearGradient></defs></svg>