<svg width="28" height="28" fill="none" xmlns="http://www.w3.org/2000/svg"><path fill-rule="evenodd" clip-rule="evenodd" d="M3.5 5.833v16.334a3.5 3.5 0 0 0 3.5 3.5h14a3.5 3.5 0 0 0 3.5-3.5V5.833a3.5 3.5 0 0 0-3.5-3.5H7a3.5 3.5 0 0 0-3.5 3.5Zm16.333-1.166H21c.644 0 1.167.522 1.167 1.166v1.75h-2.334V4.667Zm-2.333 0h-7v8.166h7V4.667Zm-9.333 0v2.916H5.833v-1.75c0-.644.523-1.166 1.167-1.166h1.167Zm0 8.166V9.917H5.833v2.916h2.334Zm-2.334 7.584v1.75c0 .644.523 1.166 1.167 1.166h1.167v-2.916H5.833Zm2.334-2.334H5.833v-2.916h2.334v2.916Zm2.333 5.25h7v-8.166h-7v8.166ZM22.167 9.917v2.916h-2.334V9.917h2.334Zm-2.334 5.25v2.916h2.334v-2.916h-2.334Zm2.334 7v-1.75h-2.334v2.916H21c.644 0 1.167-.522 1.167-1.166Z" fill="#5C59E8"/></svg>