<svg width="21" height="20" fill="none" xmlns="http://www.w3.org/2000/svg"><path d="M5.333 6.667c0-.46.373-.834.834-.834H14.5a.833.833 0 0 1 0 1.667H6.167a.833.833 0 0 1-.834-.833ZM5.333 10c0-.46.373-.833.834-.833h4.166a.833.833 0 1 1 0 1.666H6.167A.833.833 0 0 1 5.333 10Z" fill="#667085"/><path fill-rule="evenodd" clip-rule="evenodd" d="M2 12.083a2.5 2.5 0 0 0 2.5 2.5H7v2.247a.833.833 0 0 0 1.275.706L13 14.583h3.167a2.5 2.5 0 0 0 2.5-2.5v-7.5a2.5 2.5 0 0 0-2.5-2.5H4.5a2.5 2.5 0 0 0-2.5 2.5v7.5Zm6.667 3.243v-2.41H4.5a.833.833 0 0 1-.833-.833v-7.5c0-.46.373-.833.833-.833h11.667c.46 0 .833.373.833.833v7.5c0 .46-.373.834-.833.834h-3.645l-3.855 2.41Z" fill="#667085"/></svg>