<svg width="20" height="20" fill="none" xmlns="http://www.w3.org/2000/svg"><path d="M5 6.667c0-.46.373-.833.833-.833h8.334a.833.833 0 1 1 0 1.666H5.833A.833.833 0 0 1 5 6.667ZM5 10c0-.46.373-.833.833-.833H10a.833.833 0 0 1 0 1.667H5.833A.833.833 0 0 1 5 10Z" fill="#667085"/><path fill-rule="evenodd" clip-rule="evenodd" d="M1.667 12.084a2.5 2.5 0 0 0 2.5 2.5h2.5v2.246a.833.833 0 0 0 1.275.707l4.725-2.953h3.166a2.5 2.5 0 0 0 2.5-2.5v-7.5a2.5 2.5 0 0 0-2.5-2.5H4.167a2.5 2.5 0 0 0-2.5 2.5v7.5Zm6.666 3.242v-2.41H4.167a.833.833 0 0 1-.834-.832v-7.5c0-.46.374-.834.834-.834h11.666c.46 0 .834.373.834.833v7.5c0 .46-.373.834-.834.834H12.19l-3.856 2.41Z" fill="#667085"/></svg>