<svg width="21" height="20" fill="none" xmlns="http://www.w3.org/2000/svg"><path fill-rule="evenodd" clip-rule="evenodd" d="M17.638 6.82a2.5 2.5 0 0 0 0-3.535l-.59-.59a2.5 2.5 0 0 0-3.535 0l-9.489 9.49a2.5 2.5 0 0 0-.68 1.26l-.67 3.229a.833.833 0 0 0 .986.985l3.229-.67a2.5 2.5 0 0 0 1.26-.68l9.489-9.489Zm-1.179-2.357-.589-.59a.833.833 0 0 0-1.178 0l-.884.885 1.768 1.768.883-.884a.833.833 0 0 0 0-1.179Zm-2.062 3.241-1.768-1.768-7.426 7.427a.833.833 0 0 0-.227.42l-.412 1.986 1.986-.412a.833.833 0 0 0 .42-.226l7.427-7.427Z" fill="#667085"/></svg>