<svg width="20" height="20" fill="none" xmlns="http://www.w3.org/2000/svg"><g clip-path="url('#clip0_102_72557')"><path fill-rule="evenodd" clip-rule="evenodd" d="m16.644 15.55-2.458-2.459-1.622 2.148-.589-.233-.004-.001-.007-.003-.025-.01a13.947 13.947 0 0 1-.411-.177c-.27-.122-.645-.3-1.069-.528-.837-.448-1.917-1.117-2.758-1.957-.84-.841-1.509-1.921-1.958-2.758a17.498 17.498 0 0 1-.704-1.48l-.01-.026-.003-.007-.002-.003-.233-.59L6.94 5.844 4.481 3.386c-.487.797-1.114 2.151-1.118 3.835-.005 1.747.66 3.957 3.075 6.372 2.415 2.414 4.625 3.08 6.371 3.075 1.684-.004 3.039-.631 3.835-1.119ZM6.827 8.016l1.117-.843c.807-.61.89-1.793.174-2.508l-2.53-2.53c-.658-.658-1.846-.69-2.432.226-.594.928-1.455 2.65-1.46 4.855-.005 2.236.87 4.86 3.563 7.554 2.694 2.694 5.318 3.57 7.554 3.564 2.206-.006 3.928-.867 4.855-1.46.917-.587.885-1.774.227-2.432l-2.53-2.53a1.667 1.667 0 0 0-2.509.174l-.843 1.116c-.216-.1-.478-.23-.766-.384-.78-.419-1.696-.996-2.368-1.668-.671-.672-1.249-1.587-1.667-2.367-.155-.288-.284-.551-.385-.767Z" fill="#667085"/></g><defs><clipPath id="clip0_102_72557"><path fill="#fff" d="M0 0h20v20H0z"/></clipPath></defs></svg>