<svg width="24" height="24" fill="none" xmlns="http://www.w3.org/2000/svg"><g clip-path="url('#clip0_102_7608')"><path fill-rule="evenodd" clip-rule="evenodd" d="m19.973 18.66-2.95-2.95-1.946 2.577-.707-.28-.004-.001-.01-.003-.03-.013a16.43 16.43 0 0 1-.493-.213c-.323-.145-.773-.359-1.282-.632-1.005-.538-2.3-1.34-3.31-2.35-1.009-1.008-1.81-2.305-2.35-3.309a20.988 20.988 0 0 1-.845-1.776l-.012-.03-.003-.009-.002-.004-.28-.707 2.578-1.947-2.95-2.95c-.585.956-1.337 2.582-1.342 4.603-.005 2.096.793 4.748 3.69 7.645 2.898 2.898 5.55 3.696 7.646 3.69 2.021-.004 3.646-.757 4.602-1.341ZM8.193 9.62l1.34-1.012A2 2 0 0 0 9.74 5.6L6.705 2.563c-.79-.79-2.214-.828-2.918.272-.712 1.113-1.746 3.179-1.752 5.826-.006 2.683 1.044 5.832 4.276 9.065 3.233 3.232 6.382 4.282 9.065 4.276 2.647-.006 4.713-1.04 5.826-1.752 1.1-.704 1.061-2.129.272-2.918l-3.037-3.037a2 2 0 0 0-3.01.21l-1.011 1.34a19.122 19.122 0 0 1-.92-.463c-.936-.502-2.035-1.194-2.84-2-.807-.807-1.5-1.905-2.002-2.841-.185-.346-.34-.661-.461-.92Z" fill="#667085"/></g><defs><clipPath id="clip0_102_7608"><path fill="#fff" d="M0 0h24v24H0z"/></clipPath></defs></svg>