<svg width="24" height="24" fill="none" xmlns="http://www.w3.org/2000/svg"><path fill-rule="evenodd" clip-rule="evenodd" d="M16 10a4 4 0 1 1-8 0 4 4 0 0 1 8 0Zm-2 0a2 2 0 1 1-4 0 2 2 0 0 1 4 0Z" fill="#667085"/><path fill-rule="evenodd" clip-rule="evenodd" d="M20 10c0 6.87-5.9 10.791-7.567 11.76a.85.85 0 0 1-.866 0C9.9 20.792 4 16.87 4 10c0-4 3-8 8-8s8 4 8 8ZM6 10c0-3.063 2.265-6 6-6s6 2.937 6 6c0 3.283-1.632 5.804-3.414 7.586A16.229 16.229 0 0 1 12 19.679l-.14-.093a16.233 16.233 0 0 1-2.446-2C7.632 15.804 6 13.283 6 10Z" fill="#667085"/></svg>