<svg width="21" height="20" fill="none" xmlns="http://www.w3.org/2000/svg"><path d="M13 9.166a.833.833 0 1 0 0 1.667h1.667a.833.833 0 1 0 0-1.667H13Z" fill="#5C59E8"/><path fill-rule="evenodd" clip-rule="evenodd" d="M18.833 12.5a3.333 3.333 0 0 1-3.333 3.333 2.5 2.5 0 0 1-2.5 2.5H8a2.5 2.5 0 0 1-2.5-2.5A3.333 3.333 0 0 1 2.167 12.5V9.166A3.333 3.333 0 0 1 5.5 5.833V4.166a2.5 2.5 0 0 1 2.5-2.5h5a2.5 2.5 0 0 1 2.5 2.5v1.667a3.333 3.333 0 0 1 3.333 3.333V12.5ZM7.167 4.166c0-.46.373-.833.833-.833h5c.46 0 .833.373.833.833v1.667H7.167V4.166ZM5.5 7.5h10c.92 0 1.667.746 1.667 1.666V12.5c0 .92-.746 1.666-1.667 1.666V12.5h-10v1.666c-.92 0-1.667-.746-1.667-1.666V9.166c0-.92.747-1.666 1.667-1.666Zm1.667 8.333v-1.667h6.666v1.667c0 .46-.373.833-.833.833H8a.833.833 0 0 1-.833-.833Z" fill="#5C59E8"/></svg>