<svg width="24" height="24" fill="none" xmlns="http://www.w3.org/2000/svg"><path d="M6 16a1 1 0 0 1 1-1h2a1 1 0 1 1 0 2H7a1 1 0 0 1-1-1ZM7 11a1 1 0 1 0 0 2h6a1 1 0 1 0 0-2H7ZM6 8a1 1 0 0 1 1-1h6a1 1 0 1 1 0 2H7a1 1 0 0 1-1-1Z" fill="#667085"/><path fill-rule="evenodd" clip-rule="evenodd" d="M2 7a4 4 0 0 1 4-4h8a4 4 0 0 1 4 4v3h1a3 3 0 0 1 3 3v5a3 3 0 0 1-3 3H6a4 4 0 0 1-4-4V7Zm17 12a1 1 0 0 0 1-1v-5a1 1 0 0 0-1-1h-1v6a1 1 0 0 0 1 1Zm-3-1c0 .35.06.687.17 1H6a2 2 0 0 1-2-2V7a2 2 0 0 1 2-2h8a2 2 0 0 1 2 2v11Z" fill="#667085"/></svg>