<svg width="20" height="20" fill="none" xmlns="http://www.w3.org/2000/svg"><path d="M5 13.333c0-.46.373-.833.833-.833H7.5a.833.833 0 1 1 0 1.667H5.833A.833.833 0 0 1 5 13.333ZM5.833 9.167a.833.833 0 0 0 0 1.666h5a.833.833 0 0 0 0-1.666h-5ZM5 6.667c0-.46.373-.834.833-.834h5a.833.833 0 0 1 0 1.667h-5A.833.833 0 0 1 5 6.667Z" fill="#fff"/><path fill-rule="evenodd" clip-rule="evenodd" d="M1.667 5.833A3.333 3.333 0 0 1 5 2.5h6.667A3.333 3.333 0 0 1 15 5.833v2.5h.833a2.5 2.5 0 0 1 2.5 2.5V15a2.5 2.5 0 0 1-2.5 2.5H5a3.333 3.333 0 0 1-3.333-3.333V5.833Zm14.166 10c.46 0 .834-.373.834-.833v-4.167a.833.833 0 0 0-.834-.833H15v5c0 .46.373.833.833.833Zm-2.5-.833c0 .292.05.573.143.833H5c-.92 0-1.667-.746-1.667-1.666V5.833c0-.92.746-1.666 1.667-1.666h6.667c.92 0 1.666.746 1.666 1.666V15Z" fill="#fff"/></svg>