<svg width="20" height="20" fill="none" xmlns="http://www.w3.org/2000/svg"><path fill-rule="evenodd" clip-rule="evenodd" d="M5 2.5A2.5 2.5 0 0 0 2.5 5v10A2.5 2.5 0 0 0 5 17.5h10a2.5 2.5 0 0 0 2.5-2.5V7.47a2.5 2.5 0 0 0-.732-1.767l-2.471-2.47a2.5 2.5 0 0 0-1.768-.733H5Zm7.53 1.667h-.03v1.666c0 .92-.746 1.667-1.667 1.667H7.5c-.92 0-1.667-.746-1.667-1.667V4.167H5A.833.833 0 0 0 4.167 5v10c0 .46.373.833.833.833h.833v-5c0-.92.747-1.666 1.667-1.666h5c.92 0 1.667.746 1.667 1.666v5H15c.46 0 .833-.373.833-.833V7.47a.834.834 0 0 0-.244-.589l-2.47-2.47a.833.833 0 0 0-.59-.244Zm-.03 11.666v-5h-5v5h5Zm-5-11.666h3.333v1.666H7.5V4.167Z" fill="#fff"/></svg>