<svg width="20" height="20" fill="none" xmlns="http://www.w3.org/2000/svg"><path d="M10.833 6.667a.833.833 0 0 0 1.667 0v-.834h4.167a.833.833 0 0 0 0-1.666H12.5v-.834a.833.833 0 0 0-1.667 0v3.334ZM2.5 10c0-.46.373-.833.833-.833h1.25c.23 0 .417.186.417.416v.834c0 .23-.187.416-.417.416h-1.25A.833.833 0 0 1 2.5 10ZM7.5 7.5a.833.833 0 0 0-.833.833v3.334a.833.833 0 0 0 1.666 0v-.834h8.334a.833.833 0 0 0 0-1.666H8.333v-.834A.833.833 0 0 0 7.5 7.5ZM2.5 5c0-.46.373-.833.833-.833H8.75c.23 0 .417.186.417.416v.834c0 .23-.187.416-.417.416H3.333A.833.833 0 0 1 2.5 5ZM12.5 13.333a.833.833 0 0 1 1.667 0v.834h2.5a.833.833 0 0 1 0 1.666h-2.5v.834a.833.833 0 0 1-1.667 0v-3.334ZM2.5 15c0-.46.373-.833.833-.833h7.084c.23 0 .416.186.416.416v.834c0 .23-.186.416-.416.416H3.333A.833.833 0 0 1 2.5 15Z" fill="#667085"/></svg>