<svg width="24" height="24" fill="none" xmlns="http://www.w3.org/2000/svg"><path fill-rule="evenodd" clip-rule="evenodd" d="M16.66 2a3 3 0 0 1 2.545 1.41l2.205 3.529c.16.255.244.549.244.85a3.701 3.701 0 0 1-1.154 2.689V18a4 4 0 0 1-4 4h-9a4 4 0 0 1-4-4v-7.522a3.701 3.701 0 0 1-1.154-2.69c0-.3.085-.594.244-.85L4.795 3.41A3 3 0 0 1 7.34 2h9.322ZM7.34 4a1 1 0 0 0-.849.47L4.35 7.897c.056.895.799 1.603 1.708 1.603h.173c1.04 0 1.884-.844 1.884-1.885h2a1.885 1.885 0 0 0 3.77 0h2c0 1.041.843 1.885 1.884 1.885h.173c.909 0 1.652-.708 1.709-1.603L17.509 4.47A1 1 0 0 0 16.66 4H7.339Zm10.602 7.5c.19 0 .376-.014.558-.042V18a2 2 0 0 1-2 2H16v-4a3 3 0 0 0-3-3h-2a3 3 0 0 0-3 3v4h-.5a2 2 0 0 1-2-2v-6.542c.182.028.368.042.558.042h.173a3.875 3.875 0 0 0 2.884-1.283A3.875 3.875 0 0 0 12 11.5a3.875 3.875 0 0 0 2.885-1.283 3.875 3.875 0 0 0 2.884 1.283h.173ZM10 20h4v-4a1 1 0 0 0-1-1h-2a1 1 0 0 0-1 1v4Z" fill="#667085"/></svg>