<svg width="21" height="20" fill="none" xmlns="http://www.w3.org/2000/svg"><path d="M8.667 8.125c.46 0 .833.373.833.833v5a.833.833 0 0 1-1.667 0v-5c0-.46.373-.833.834-.833ZM12.833 8.958a.833.833 0 0 0-1.666 0v5a.833.833 0 0 0 1.666 0v-5Z" fill="#667085"/><path fill-rule="evenodd" clip-rule="evenodd" d="M15.333 5v-.833a2.5 2.5 0 0 0-2.5-2.5h-5a2.5 2.5 0 0 0-2.5 2.5V5h-1.25a.833.833 0 0 0 0 1.667H4.5v9.166a2.5 2.5 0 0 0 2.5 2.5h6.667a2.5 2.5 0 0 0 2.5-2.5V6.667h.416a.833.833 0 1 0 0-1.667h-1.25Zm-2.5-1.667h-5A.833.833 0 0 0 7 4.167V5h6.667v-.833a.833.833 0 0 0-.834-.834ZM14.5 6.667H6.167v9.166c0 .46.373.834.833.834h6.667c.46 0 .833-.373.833-.834V6.667Z" fill="#667085"/></svg>