<svg width="20" height="20" fill="none" xmlns="http://www.w3.org/2000/svg"><path d="M8.333 8.125c.46 0 .834.373.834.834v5a.833.833 0 0 1-1.667 0v-5c0-.46.373-.834.833-.834ZM12.5 8.959a.833.833 0 1 0-1.667 0v5a.833.833 0 0 0 1.667 0v-5Z" fill="#667085"/><path fill-rule="evenodd" clip-rule="evenodd" d="M15 5v-.833a2.5 2.5 0 0 0-2.5-2.5h-5a2.5 2.5 0 0 0-2.5 2.5V5H3.75a.833.833 0 1 0 0 1.667h.417v9.167a2.5 2.5 0 0 0 2.5 2.5h6.666a2.5 2.5 0 0 0 2.5-2.5V6.667h.417a.833.833 0 0 0 0-1.667H15Zm-2.5-1.666h-5a.833.833 0 0 0-.833.833V5h6.666v-.833a.833.833 0 0 0-.833-.833Zm1.667 3.333H5.833v9.167c0 .46.373.833.834.833h6.666c.46 0 .834-.373.834-.833V6.667Z" fill="#667085"/></svg>