<svg width="21" height="20" fill="none" xmlns="http://www.w3.org/2000/svg"><path fill-rule="evenodd" clip-rule="evenodd" d="M10.333 9.167a3.75 3.75 0 1 0 0-7.5 3.75 3.75 0 0 0 0 7.5Zm0-1.667a2.083 2.083 0 1 0 0-4.167 2.083 2.083 0 0 0 0 4.167Z" fill="#667085"/><path d="M12.064 11.667c.834 0 1.61.248 2.256.675.385.254.909.262 1.234-.063.326-.325.329-.859-.04-1.134A5.744 5.744 0 0 0 12.064 10H8.602a5.77 5.77 0 0 0-5.769 5.77c0 .955.775 1.73 1.731 1.73h5.77a.833.833 0 0 0 0-1.667h-5.77a.064.064 0 0 1-.064-.064 4.103 4.103 0 0 1 4.102-4.102h3.462Z" fill="#667085"/><path d="M18.668 13.05a.833.833 0 0 0-1.253-1.1l-2.768 3.154-1.212-.964a.833.833 0 0 0-1.037 1.304l2.144 1.705a.417.417 0 0 0 .572-.05l3.554-4.05Z" fill="#667085"/></svg>