<svg width="20" height="20" fill="none" xmlns="http://www.w3.org/2000/svg"><path fill-rule="evenodd" clip-rule="evenodd" d="M10 9.167a3.75 3.75 0 1 0 0-7.5 3.75 3.75 0 0 0 0 7.5ZM10 7.5a2.083 2.083 0 1 0 0-4.166A2.083 2.083 0 0 0 10 7.5Z" fill="#667085"/><path d="M11.73 11.667c.834 0 1.61.249 2.257.676.384.253.909.262 1.234-.064.325-.325.328-.858-.04-1.134A5.743 5.743 0 0 0 11.73 10H8.269A5.77 5.77 0 0 0 2.5 15.77c0 .955.775 1.73 1.73 1.73H10a.833.833 0 0 0 0-1.666H4.23a.064.064 0 0 1-.063-.064 4.103 4.103 0 0 1 4.102-4.103h3.462Z" fill="#667085"/><path d="M18.335 13.05a.833.833 0 1 0-1.253-1.1l-2.768 3.154-1.212-.964a.833.833 0 1 0-1.037 1.304l2.144 1.706a.417.417 0 0 0 .572-.052l3.554-4.048Z" fill="#667085"/></svg>