<svg width="24" height="24" fill="none" xmlns="http://www.w3.org/2000/svg"><path d="M9.172 9.172a1 1 0 0 1 1.414 0L12 10.586l.707-.707a1 1 0 1 1 1.414 1.414l-1.414 1.414a1 1 0 0 1-1.414 0l-.003-.003-2.118-2.118a1 1 0 0 1 0-1.414Z" fill="#E46A11"/><path fill-rule="evenodd" clip-rule="evenodd" d="m7.91 2.041 3.163 2.013a7.985 7.985 0 0 1 6.584 2.29 7.985 7.985 0 0 1 2.29 6.583l2.012 3.163a2 2 0 0 1-.273 2.488l-3.108 3.108a2 2 0 0 1-2.488.273l-3.163-2.012a7.986 7.986 0 0 1-6.584-2.29 7.986 7.986 0 0 1-2.29-6.584L2.042 7.91a2 2 0 0 1 .273-2.487l3.108-3.109a2 2 0 0 1 2.488-.273ZM6.343 6.343a7.988 7.988 0 0 0-1.546 2.172L3.728 6.837l3.109-3.108 1.678 1.068c-.785.38-1.52.895-2.172 1.546Zm9.142 12.86 1.678 1.069 3.109-3.108-1.069-1.679a7.987 7.987 0 0 1-1.546 2.172 7.985 7.985 0 0 1-2.172 1.547Zm.758-2.96a6 6 0 1 0-8.485-8.485 6 6 0 0 0 8.485 8.485Z" fill="#E46A11"/></svg>