<svg width="32" height="32" viewBox="0 0 32 32" fill="none" xmlns="http://www.w3.org/2000/svg">
<path d="M16.3904 8.94313C15.8697 8.42244 15.8697 7.57822 16.3904 7.05752C16.9111 6.53682 17.7553 6.53682 18.276 7.05752L26.27 15.0515C26.274 15.0555 26.2781 15.0595 26.2821 15.0636L26.7474 15.5289C27.0078 15.7893 27.0078 16.2114 26.7474 16.4717L26.2821 16.937C26.2781 16.9411 26.274 16.9452 26.27 16.9492L18.276 24.9431C17.7553 25.4638 16.9111 25.4638 16.3904 24.9431C15.8697 24.4224 15.8697 23.5782 16.3904 23.0575L22.1143 17.3337H6.66659C5.93021 17.3337 5.33325 16.7367 5.33325 16.0003C5.33325 15.2639 5.93021 14.667 6.66659 14.667H22.1143L16.3904 8.94313Z" fill="#5C59E8"/>
</svg>
