<svg width="20" height="20" viewBox="0 0 20 20" fill="none" xmlns="http://www.w3.org/2000/svg">
<path fill-rule="evenodd" clip-rule="evenodd" d="M7.5 2.50002C7.5 2.03978 7.1269 1.66669 6.66667 1.66669C6.20643 1.66669 5.83333 2.03978 5.83333 2.50002H5C3.61929 2.50002 2.5 3.61931 2.5 5.00002V15.8334C2.5 17.2141 3.61929 18.3334 5 18.3334H15C16.3807 18.3334 17.5 17.2141 17.5 15.8334V5.00002C17.5 3.61931 16.3807 2.50002 15 2.50002H14.1667C14.1667 2.03978 13.7936 1.66669 13.3333 1.66669C12.8731 1.66669 12.5 2.03978 12.5 2.50002H7.5ZM15.8333 5.83335V5.00002C15.8333 4.53978 15.4602 4.16669 15 4.16669H14.1667C14.1667 4.62692 13.7936 5.00002 13.3333 5.00002C12.8731 5.00002 12.5 4.62692 12.5 4.16669H7.5C7.5 4.62692 7.1269 5.00002 6.66667 5.00002C6.20643 5.00002 5.83333 4.62692 5.83333 4.16669H5C4.53976 4.16669 4.16667 4.53978 4.16667 5.00002V5.83335H15.8333ZM4.16667 7.50002V15.8334C4.16667 16.2936 4.53976 16.6667 5 16.6667H15C15.4602 16.6667 15.8333 16.2936 15.8333 15.8334V7.50002H4.16667Z" fill="#667085"/>
</svg>
