<svg width="20" height="20" viewBox="0 0 20 20" fill="none" xmlns="http://www.w3.org/2000/svg">
<path fill-rule="evenodd" clip-rule="evenodd" d="M7.5 2.49984C7.5 2.0396 7.1269 1.6665 6.66667 1.6665C6.20643 1.6665 5.83333 2.0396 5.83333 2.49984H5C3.61929 2.49984 2.5 3.61913 2.5 4.99984V15.8332C2.5 17.2139 3.61929 18.3332 5 18.3332H15C16.3807 18.3332 17.5 17.2139 17.5 15.8332V4.99984C17.5 3.61913 16.3807 2.49984 15 2.49984H14.1667C14.1667 2.0396 13.7936 1.6665 13.3333 1.6665C12.8731 1.6665 12.5 2.0396 12.5 2.49984H7.5ZM15.8333 5.83317V4.99984C15.8333 4.5396 15.4602 4.1665 15 4.1665H14.1667C14.1667 4.62674 13.7936 4.99984 13.3333 4.99984C12.8731 4.99984 12.5 4.62674 12.5 4.1665H7.5C7.5 4.62674 7.1269 4.99984 6.66667 4.99984C6.20643 4.99984 5.83333 4.62674 5.83333 4.1665H5C4.53976 4.1665 4.16667 4.5396 4.16667 4.99984V5.83317H15.8333ZM4.16667 7.49984V15.8332C4.16667 16.2934 4.53976 16.6665 5 16.6665H15C15.4602 16.6665 15.8333 16.2934 15.8333 15.8332V7.49984H4.16667Z" fill="#667085"/>
</svg>
