<svg width="20" height="20" viewBox="0 0 20 20" fill="none" xmlns="http://www.w3.org/2000/svg">
<path fill-rule="evenodd" clip-rule="evenodd" d="M7.5 2.50008C7.5 2.03984 7.1269 1.66675 6.66667 1.66675C6.20643 1.66675 5.83333 2.03984 5.83333 2.50008H5C3.61929 2.50008 2.5 3.61937 2.5 5.00008V15.8334C2.5 17.2141 3.61929 18.3334 5 18.3334H15C16.3807 18.3334 17.5 17.2141 17.5 15.8334V5.00008C17.5 3.61937 16.3807 2.50008 15 2.50008H14.1667C14.1667 2.03984 13.7936 1.66675 13.3333 1.66675C12.8731 1.66675 12.5 2.03984 12.5 2.50008H7.5ZM15.8333 5.83341V5.00008C15.8333 4.53984 15.4602 4.16675 15 4.16675H14.1667C14.1667 4.62699 13.7936 5.00008 13.3333 5.00008C12.8731 5.00008 12.5 4.62699 12.5 4.16675H7.5C7.5 4.62699 7.1269 5.00008 6.66667 5.00008C6.20643 5.00008 5.83333 4.62699 5.83333 4.16675H5C4.53976 4.16675 4.16667 4.53984 4.16667 5.00008V5.83341H15.8333ZM4.16667 7.50008V15.8334C4.16667 16.2937 4.53976 16.6667 5 16.6667H15C15.4602 16.6667 15.8333 16.2937 15.8333 15.8334V7.50008H4.16667Z" fill="#667085"/>
</svg>
