<svg width="20" height="20" viewBox="0 0 20 20" fill="none" xmlns="http://www.w3.org/2000/svg">
<path fill-rule="evenodd" clip-rule="evenodd" d="M7.5 2.50001C7.5 2.03977 7.1269 1.66667 6.66667 1.66667C6.20643 1.66667 5.83333 2.03977 5.83333 2.50001H5C3.61929 2.50001 2.5 3.61929 2.5 5.00001V15.8333C2.5 17.2141 3.61929 18.3333 5 18.3333H15C16.3807 18.3333 17.5 17.2141 17.5 15.8333V5.00001C17.5 3.61929 16.3807 2.50001 15 2.50001H14.1667C14.1667 2.03977 13.7936 1.66667 13.3333 1.66667C12.8731 1.66667 12.5 2.03977 12.5 2.50001H7.5ZM15.8333 5.83334V5.00001C15.8333 4.53977 15.4602 4.16667 15 4.16667H14.1667C14.1667 4.62691 13.7936 5.00001 13.3333 5.00001C12.8731 5.00001 12.5 4.62691 12.5 4.16667H7.5C7.5 4.62691 7.1269 5.00001 6.66667 5.00001C6.20643 5.00001 5.83333 4.62691 5.83333 4.16667H5C4.53976 4.16667 4.16667 4.53977 4.16667 5.00001V5.83334H15.8333ZM4.16667 7.50001V15.8333C4.16667 16.2936 4.53976 16.6667 5 16.6667H15C15.4602 16.6667 15.8333 16.2936 15.8333 15.8333V7.50001H4.16667Z" fill="#667085"/>
</svg>
