<svg width="20" height="20" viewBox="0 0 20 20" fill="none" xmlns="http://www.w3.org/2000/svg">
<path d="M15.1725 13.9941C15.498 14.3195 15.498 14.8472 15.1725 15.1726C14.8471 15.498 14.3194 15.498 13.994 15.1726L9.99995 11.1786L6.00601 15.1726C5.68058 15.4981 5.15294 15.4981 4.8275 15.1726C4.50206 14.8472 4.50206 14.3195 4.82749 13.9941L8.82143 10.0001L4.82733 6.00607C4.50189 5.68064 4.50189 5.15301 4.82733 4.82757C5.15277 4.50214 5.68041 4.50214 6.00585 4.82757L9.99993 8.82158L13.9939 4.82759C14.3193 4.50215 14.8469 4.50214 15.1724 4.82758C15.4978 5.15301 15.4978 5.68065 15.1724 6.00609L11.1784 10.0001L15.1725 13.9941Z" fill="#858D9D"/>
</svg>
