<svg width="20" height="20" viewBox="0 0 20 20" fill="none" xmlns="http://www.w3.org/2000/svg">
<path d="M15.1725 13.9941C15.498 14.3195 15.498 14.8472 15.1725 15.1726C14.8471 15.498 14.3195 15.498 13.994 15.1726L9.99998 11.1786L6.00604 15.1726C5.68061 15.4981 5.15297 15.4981 4.82753 15.1726C4.50209 14.8472 4.50209 14.3195 4.82752 13.9941L8.82146 10.0001L4.82736 6.00607C4.50192 5.68064 4.50192 5.15301 4.82736 4.82757C5.1528 4.50214 5.68044 4.50214 6.00588 4.82757L9.99996 8.82158L13.9939 4.82759C14.3193 4.50215 14.847 4.50214 15.1724 4.82758C15.4978 5.15301 15.4978 5.68065 15.1724 6.00609L11.1785 10.0001L15.1725 13.9941Z" fill="#858D9D"/>
</svg>
