<svg width="16" height="16" viewBox="0 0 16 16" fill="none" xmlns="http://www.w3.org/2000/svg">
<path d="M12.138 11.1952C12.3984 11.4556 12.3984 11.8777 12.138 12.138C11.8777 12.3984 11.4556 12.3984 11.1952 12.138L7.99998 8.94284L4.80483 12.138C4.54449 12.3984 4.12238 12.3984 3.86202 12.138C3.60167 11.8777 3.60167 11.4556 3.86202 11.1952L7.05717 8.00004L3.86189 4.80481C3.60154 4.54446 3.60154 4.12236 3.86189 3.86201C4.12224 3.60166 4.54435 3.60166 4.80471 3.86201L7.99997 7.05722L11.1951 3.86202C11.4555 3.60167 11.8776 3.60167 12.1379 3.86201C12.3983 4.12236 12.3983 4.54447 12.1379 4.80482L8.94278 8.00002L12.138 11.1952Z" fill="#5C59E8"/>
</svg>
