<svg width="20" height="20" viewBox="0 0 20 20" fill="none" xmlns="http://www.w3.org/2000/svg">
<path d="M11.6666 5.00001C11.6666 5.92048 10.9204 6.66668 9.99992 6.66668C9.07944 6.66668 8.33325 5.92048 8.33325 5.00001C8.33325 4.07954 9.07944 3.33334 9.99992 3.33334C10.9204 3.33334 11.6666 4.07954 11.6666 5.00001Z" fill="#858D9D"/>
<path d="M11.6666 10C11.6666 10.9205 10.9204 11.6667 9.99992 11.6667C9.07944 11.6667 8.33325 10.9205 8.33325 10C8.33325 9.07954 9.07944 8.33334 9.99992 8.33334C10.9204 8.33334 11.6666 9.07954 11.6666 10Z" fill="#858D9D"/>
<path d="M9.99992 16.6667C10.9204 16.6667 11.6666 15.9205 11.6666 15C11.6666 14.0795 10.9204 13.3333 9.99992 13.3333C9.07944 13.3333 8.33325 14.0795 8.33325 15C8.33325 15.9205 9.07944 16.6667 9.99992 16.6667Z" fill="#858D9D"/>
</svg>
