<svg width="20" height="20" viewBox="0 0 20 20" fill="none" xmlns="http://www.w3.org/2000/svg">
<path d="M11.6666 5.00016C11.6666 5.92064 10.9205 6.66683 9.99998 6.66683C9.07951 6.66683 8.33331 5.92064 8.33331 5.00016C8.33331 4.07969 9.07951 3.3335 9.99998 3.3335C10.9205 3.3335 11.6666 4.07969 11.6666 5.00016Z" fill="#858D9D"/>
<path d="M11.6666 10.0002C11.6666 10.9206 10.9205 11.6668 9.99998 11.6668C9.07951 11.6668 8.33331 10.9206 8.33331 10.0002C8.33331 9.07969 9.07951 8.3335 9.99998 8.3335C10.9205 8.3335 11.6666 9.07969 11.6666 10.0002Z" fill="#858D9D"/>
<path d="M9.99998 16.6668C10.9205 16.6668 11.6666 15.9206 11.6666 15.0002C11.6666 14.0797 10.9205 13.3335 9.99998 13.3335C9.07951 13.3335 8.33331 14.0797 8.33331 15.0002C8.33331 15.9206 9.07951 16.6668 9.99998 16.6668Z" fill="#858D9D"/>
</svg>
