<svg width="20" height="20" viewBox="0 0 20 20" fill="none" xmlns="http://www.w3.org/2000/svg">
<path d="M11.6667 4.99999C11.6667 5.92047 10.9205 6.66666 10 6.66666C9.07957 6.66666 8.33337 5.92047 8.33337 4.99999C8.33337 4.07952 9.07957 3.33333 10 3.33333C10.9205 3.33333 11.6667 4.07952 11.6667 4.99999Z" fill="#858D9D"/>
<path d="M11.6667 9.99999C11.6667 10.9205 10.9205 11.6667 10 11.6667C9.07957 11.6667 8.33337 10.9205 8.33337 9.99999C8.33337 9.07952 9.07957 8.33333 10 8.33333C10.9205 8.33333 11.6667 9.07952 11.6667 9.99999Z" fill="#858D9D"/>
<path d="M10 16.6667C10.9205 16.6667 11.6667 15.9205 11.6667 15C11.6667 14.0795 10.9205 13.3333 10 13.3333C9.07957 13.3333 8.33337 14.0795 8.33337 15C8.33337 15.9205 9.07957 16.6667 10 16.6667Z" fill="#858D9D"/>
</svg>
