<svg width="20" height="20" viewBox="0 0 20 20" fill="none" xmlns="http://www.w3.org/2000/svg">
<path d="M11.6667 5.00001C11.6667 5.92048 10.9205 6.66668 10 6.66668C9.07957 6.66668 8.33337 5.92048 8.33337 5.00001C8.33337 4.07954 9.07957 3.33334 10 3.33334C10.9205 3.33334 11.6667 4.07954 11.6667 5.00001Z" fill="#858D9D"/>
<path d="M11.6667 10C11.6667 10.9205 10.9205 11.6667 10 11.6667C9.07957 11.6667 8.33337 10.9205 8.33337 10C8.33337 9.07954 9.07957 8.33334 10 8.33334C10.9205 8.33334 11.6667 9.07954 11.6667 10Z" fill="#858D9D"/>
<path d="M10 16.6667C10.9205 16.6667 11.6667 15.9205 11.6667 15C11.6667 14.0795 10.9205 13.3333 10 13.3333C9.07957 13.3333 8.33337 14.0795 8.33337 15C8.33337 15.9205 9.07957 16.6667 10 16.6667Z" fill="#858D9D"/>
</svg>
