<svg width="20" height="20" viewBox="0 0 20 20" fill="none" xmlns="http://www.w3.org/2000/svg">
<path d="M11.6667 5.00016C11.6667 5.92064 10.9205 6.66683 10 6.66683C9.07957 6.66683 8.33337 5.92064 8.33337 5.00016C8.33337 4.07969 9.07957 3.3335 10 3.3335C10.9205 3.3335 11.6667 4.07969 11.6667 5.00016Z" fill="#858D9D"/>
<path d="M11.6667 10.0002C11.6667 10.9206 10.9205 11.6668 10 11.6668C9.07957 11.6668 8.33337 10.9206 8.33337 10.0002C8.33337 9.07969 9.07957 8.3335 10 8.3335C10.9205 8.3335 11.6667 9.07969 11.6667 10.0002Z" fill="#858D9D"/>
<path d="M10 16.6668C10.9205 16.6668 11.6667 15.9206 11.6667 15.0002C11.6667 14.0797 10.9205 13.3335 10 13.3335C9.07957 13.3335 8.33337 14.0797 8.33337 15.0002C8.33337 15.9206 9.07957 16.6668 10 16.6668Z" fill="#858D9D"/>
</svg>
