<svg width="21" height="20" viewBox="0 0 21 20" fill="none" xmlns="http://www.w3.org/2000/svg">
<path d="M9.875 11.3215L8.79759 10.2441C8.47215 9.91864 7.94451 9.91864 7.61908 10.2441C7.29364 10.5695 7.29364 11.0972 7.61908 11.4226L10.4137 14.2172C10.5764 14.3799 10.8402 14.3799 11.003 14.2172L13.7976 11.4226C14.123 11.0972 14.123 10.5695 13.7976 10.2441C13.4722 9.91864 12.9445 9.91864 12.6191 10.2441L11.5417 11.3215V3.33333C11.5417 2.8731 11.1686 2.5 10.7083 2.5C10.2481 2.5 9.875 2.8731 9.875 3.33333V11.3215Z" fill="#5C59E8"/>
<path d="M3.83333 11.6667C4.29357 11.6667 4.66667 12.0398 4.66667 12.5V14.1667C4.66667 15.0871 5.41286 15.8333 6.33333 15.8333H14.6667C15.5871 15.8333 16.3333 15.0871 16.3333 14.1667V12.5C16.3333 12.0398 16.7064 11.6667 17.1667 11.6667C17.6269 11.6667 18 12.0398 18 12.5V14.1667C18 16.0076 16.5076 17.5 14.6667 17.5H6.33333C4.49238 17.5 3 16.0076 3 14.1667V12.5C3 12.0398 3.3731 11.6667 3.83333 11.6667Z" fill="#5C59E8"/>
</svg>
