<svg width="20" height="20" viewBox="0 0 20 20" fill="none" xmlns="http://www.w3.org/2000/svg">
<path d="M13.0892 6.00631C12.7638 6.33175 12.2362 6.33175 11.9107 6.00631L10.8333 4.9289V12.9171C10.8333 13.3773 10.4602 13.7504 9.99999 13.7504C9.53975 13.7504 9.16666 13.3773 9.16666 12.9171V4.9289L8.08925 6.00631C7.76381 6.33175 7.23617 6.33175 6.91073 6.00631C6.5853 5.68087 6.5853 5.15324 6.91073 4.8278L9.70536 2.03317C9.86808 1.87045 10.1319 1.87045 10.2946 2.03317L13.0892 4.8278C13.4147 5.15324 13.4147 5.68087 13.0892 6.00631Z" fill="#5C59E8"/>
<path d="M15 7.08372C16.8409 7.08372 18.3333 8.57611 18.3333 10.4171V14.5837C18.3333 16.4247 16.8409 17.9171 15 17.9171H4.99999C3.15904 17.9171 1.66666 16.4247 1.66666 14.5837V10.4171C1.66666 8.57611 3.15904 7.08372 4.99999 7.08372H6.66666C7.12689 7.08372 7.49999 7.45682 7.49999 7.91706C7.49999 8.37729 7.12689 8.75039 6.66666 8.75039H4.99999C4.07951 8.75039 3.33332 9.49658 3.33332 10.4171V14.5837C3.33332 15.5042 4.07952 16.2504 4.99999 16.2504H15C15.9205 16.2504 16.6667 15.5042 16.6667 14.5837V10.4171C16.6667 9.49658 15.9205 8.75039 15 8.75039H13.3333C12.8731 8.75039 12.5 8.37729 12.5 7.91706C12.5 7.45682 12.8731 7.08372 13.3333 7.08372H15Z" fill="#5C59E8"/>
</svg>
