<svg width="21" height="20" viewBox="0 0 21 20" fill="none" xmlns="http://www.w3.org/2000/svg">
<path fill-rule="evenodd" clip-rule="evenodd" d="M10.3332 4.16669C15.4415 4.16669 17.8588 7.59166 18.7098 9.19284C18.9808 9.70268 18.9808 10.2974 18.7098 10.8072C17.8588 12.4084 15.4415 15.8334 10.3332 15.8334C5.22489 15.8334 2.80761 12.4084 1.95664 10.8072C1.68568 10.2974 1.68568 9.70268 1.95664 9.19284C2.80761 7.59166 5.22489 4.16669 10.3332 4.16669ZM6.03017 7.06477C4.64662 7.98147 3.83873 9.20287 3.42837 9.975C3.42379 9.98363 3.4219 9.98961 3.42108 9.99289C3.42024 9.99623 3.42008 10 3.42008 10C3.42008 10 3.42024 10.0038 3.42108 10.0071C3.4219 10.0104 3.42379 10.0164 3.42837 10.025C3.83873 10.7972 4.64662 12.0186 6.03017 12.9353C5.45895 12.0995 5.12489 11.0888 5.12489 10C5.12489 8.91127 5.45895 7.90055 6.03017 7.06477ZM14.6363 12.9353C16.0198 12.0186 16.8277 10.7972 17.2381 10.025C17.2426 10.0164 17.2445 10.0104 17.2453 10.0071C17.2459 10.005 17.2463 10.0019 17.2463 10.0019L17.2463 10L17.2461 9.99635L17.2453 9.99289C17.2445 9.98961 17.2426 9.98363 17.2381 9.975C16.8277 9.20288 16.0198 7.98148 14.6363 7.06478C15.2075 7.90056 15.5416 8.91128 15.5416 10C15.5416 11.0888 15.2075 12.0995 14.6363 12.9353ZM6.79155 10C6.79155 8.04401 8.37721 6.45835 10.3332 6.45835C12.2892 6.45835 13.8749 8.04401 13.8749 10C13.8749 11.956 12.2892 13.5417 10.3332 13.5417C8.37721 13.5417 6.79155 11.956 6.79155 10Z" fill="#667085"/>
</svg>
