<svg width="20" height="20" viewBox="0 0 20 20" fill="none" xmlns="http://www.w3.org/2000/svg">
<path fill-rule="evenodd" clip-rule="evenodd" d="M9.99996 4.16663C15.1083 4.16663 17.5256 7.5916 18.3765 9.19278C18.6475 9.70262 18.6475 10.2973 18.3765 10.8071C17.5256 12.4083 15.1083 15.8333 9.99996 15.8333C4.89164 15.8333 2.47436 12.4083 1.62339 10.8071C1.35242 10.2973 1.35242 9.70262 1.62339 9.19277C2.47436 7.59159 4.89164 4.16663 9.99996 4.16663ZM5.69692 7.0647C4.31336 7.98141 3.50548 9.20281 3.09512 9.97494C3.09054 9.98357 3.08865 9.98955 3.08783 9.99283C3.08699 9.99617 3.08683 9.99996 3.08683 9.99996C3.08683 9.99996 3.08699 10.0037 3.08783 10.0071C3.08865 10.0104 3.09054 10.0164 3.09512 10.025C3.50548 10.7971 4.31336 12.0185 5.69692 12.9352C5.1257 12.0994 4.79163 11.0887 4.79163 9.99996C4.79163 8.91121 5.1257 7.90049 5.69692 7.0647ZM14.303 12.9352C15.6866 12.0185 16.4944 10.7971 16.9048 10.025C16.9094 10.0164 16.9113 10.0104 16.9121 10.0071C16.9126 10.0049 16.913 10.0019 16.913 10.0019L16.9131 9.99996L16.9128 9.99629L16.9121 9.99283C16.9113 9.98955 16.9094 9.98357 16.9048 9.97494C16.4944 9.20282 15.6866 7.98142 14.303 7.06471C14.8742 7.9005 15.2083 8.91122 15.2083 9.99996C15.2083 11.0887 14.8742 12.0994 14.303 12.9352ZM6.4583 9.99996C6.4583 8.04395 8.04396 6.45829 9.99997 6.45829C11.956 6.45829 13.5416 8.04395 13.5416 9.99996C13.5416 11.956 11.956 13.5416 9.99997 13.5416C8.04396 13.5416 6.4583 11.956 6.4583 9.99996Z" fill="#667085"/>
</svg>
