<svg width="20" height="20" viewBox="0 0 20 20" fill="none" xmlns="http://www.w3.org/2000/svg">
<path fill-rule="evenodd" clip-rule="evenodd" d="M9.99996 4.1665C15.1083 4.1665 17.5256 7.59147 18.3765 9.19265C18.6475 9.7025 18.6475 10.2972 18.3765 10.807C17.5256 12.4082 15.1083 15.8332 9.99996 15.8332C4.89164 15.8332 2.47436 12.4082 1.62339 10.807C1.35242 10.2972 1.35242 9.7025 1.62339 9.19265C2.47436 7.59147 4.89164 4.1665 9.99996 4.1665ZM5.69692 7.06458C4.31336 7.98129 3.50548 9.20269 3.09512 9.97482C3.09054 9.98345 3.08865 9.98942 3.08783 9.99271C3.08699 9.99605 3.08683 9.99984 3.08683 9.99984C3.08683 9.99984 3.08699 10.0036 3.08783 10.007C3.08865 10.0102 3.09054 10.0162 3.09512 10.0249C3.50548 10.797 4.31336 12.0184 5.69692 12.9351C5.1257 12.0993 4.79163 11.0886 4.79163 9.99984C4.79163 8.91109 5.1257 7.90037 5.69692 7.06458ZM14.303 12.9351C15.6866 12.0184 16.4944 10.797 16.9048 10.0249C16.9094 10.0162 16.9113 10.0103 16.9121 10.007C16.9126 10.0048 16.913 10.0017 16.913 10.0017L16.9131 9.99984L16.9128 9.99617L16.9121 9.99271C16.9113 9.98942 16.9094 9.98344 16.9048 9.97482C16.4944 9.20269 15.6866 7.9813 14.303 7.06459C14.8742 7.90038 15.2083 8.91109 15.2083 9.99984C15.2083 11.0886 14.8742 12.0993 14.303 12.9351ZM6.4583 9.99984C6.4583 8.04383 8.04396 6.45817 9.99997 6.45817C11.956 6.45817 13.5416 8.04383 13.5416 9.99984C13.5416 11.9558 11.956 13.5415 9.99997 13.5415C8.04396 13.5415 6.4583 11.9558 6.4583 9.99984Z" fill="#667085"/>
</svg>
