<svg width="20" height="20" viewBox="0 0 20 20" fill="none" xmlns="http://www.w3.org/2000/svg">
<path fill-rule="evenodd" clip-rule="evenodd" d="M9.99998 4.1665C15.1083 4.1665 17.5256 7.59147 18.3766 9.19265C18.6475 9.7025 18.6475 10.2972 18.3766 10.807C17.5256 12.4082 15.1083 15.8332 9.99998 15.8332C4.89165 15.8332 2.47437 12.4082 1.6234 10.807C1.35244 10.2972 1.35244 9.7025 1.62341 9.19265C2.47437 7.59147 4.89165 4.1665 9.99998 4.1665ZM5.69693 7.06458C4.31338 7.98129 3.50549 9.20269 3.09514 9.97482C3.09055 9.98345 3.08867 9.98943 3.08784 9.99271C3.08701 9.99605 3.08685 9.99984 3.08685 9.99984C3.08685 9.99984 3.08701 10.0036 3.08784 10.007C3.08867 10.0102 3.09055 10.0162 3.09513 10.0249C3.50549 10.797 4.31338 12.0184 5.69693 12.9351C5.12571 12.0993 4.79165 11.0886 4.79165 9.99984C4.79165 8.91109 5.12571 7.90037 5.69693 7.06458ZM14.303 12.9351C15.6866 12.0184 16.4945 10.797 16.9048 10.0249C16.9094 10.0162 16.9113 10.0103 16.9121 10.007C16.9127 10.0048 16.913 10.0017 16.913 10.0017L16.9131 9.99984L16.9128 9.99617L16.9121 9.99271C16.9113 9.98942 16.9094 9.98344 16.9048 9.97482C16.4945 9.20269 15.6866 7.9813 14.303 7.06459C14.8743 7.90038 15.2083 8.91109 15.2083 9.99984C15.2083 11.0886 14.8743 12.0993 14.303 12.9351ZM6.45832 9.99984C6.45832 8.04383 8.04397 6.45817 9.99998 6.45817C11.956 6.45817 13.5416 8.04383 13.5416 9.99984C13.5416 11.9558 11.956 13.5415 9.99998 13.5415C8.04397 13.5415 6.45832 11.9558 6.45832 9.99984Z" fill="#667085"/>
</svg>
