<svg width="20" height="20" viewBox="0 0 20 20" fill="none" xmlns="http://www.w3.org/2000/svg">
<path fill-rule="evenodd" clip-rule="evenodd" d="M9.99998 4.16699C15.1083 4.16699 17.5256 7.59196 18.3765 9.19314C18.6475 9.70299 18.6475 10.2977 18.3765 10.8075C17.5256 12.4087 15.1083 15.8337 9.99998 15.8337C4.89165 15.8337 2.47437 12.4087 1.6234 10.8075C1.35244 10.2977 1.35244 9.70299 1.62341 9.19314C2.47437 7.59196 4.89165 4.16699 9.99998 4.16699ZM5.69693 7.06507C4.31338 7.98178 3.50549 9.20318 3.09514 9.97531C3.09055 9.98393 3.08867 9.98991 3.08784 9.9932C3.08701 9.99654 3.08685 10.0003 3.08685 10.0003C3.08685 10.0003 3.08701 10.0041 3.08784 10.0075C3.08867 10.0107 3.09055 10.0167 3.09513 10.0253C3.50549 10.7975 4.31338 12.0189 5.69693 12.9356C5.12571 12.0998 4.79165 11.0891 4.79165 10.0003C4.79165 8.91158 5.12571 7.90086 5.69693 7.06507ZM14.303 12.9356C15.6866 12.0189 16.4945 10.7975 16.9048 10.0253C16.9094 10.0167 16.9113 10.0107 16.9121 10.0075C16.9127 10.0053 16.913 10.0022 16.913 10.0022L16.9131 10.0003L16.9128 9.99666L16.9121 9.9932C16.9113 9.98991 16.9094 9.98393 16.9048 9.97531C16.4945 9.20318 15.6866 7.98179 14.303 7.06508C14.8743 7.90086 15.2083 8.91158 15.2083 10.0003C15.2083 11.0891 14.8743 12.0998 14.303 12.9356ZM6.45832 10.0003C6.45832 8.04432 8.04397 6.45866 9.99998 6.45866C11.956 6.45866 13.5416 8.04432 13.5416 10.0003C13.5416 11.9563 11.956 13.542 9.99998 13.542C8.04397 13.542 6.45832 11.9563 6.45832 10.0003Z" fill="#667085"/>
</svg>
