<svg width="28" height="28" viewBox="0 0 28 28" fill="none" xmlns="http://www.w3.org/2000/svg">
<path d="M9.33337 12.2502C10.2999 12.2502 11.0834 11.4667 11.0834 10.5002C11.0834 9.53366 10.2999 8.75016 9.33337 8.75016C8.36688 8.75016 7.58337 9.53366 7.58337 10.5002C7.58337 11.4667 8.36688 12.2502 9.33337 12.2502Z" fill="#5C59E8"/>
<path fill-rule="evenodd" clip-rule="evenodd" d="M6.70837 3.2085C4.77538 3.2085 3.20837 4.7755 3.20837 6.7085V21.2918C3.20837 23.2248 4.77538 24.7918 6.70837 24.7918H21.2917C23.2247 24.7918 24.7917 23.2248 24.7917 21.2918V6.7085C24.7917 4.7755 23.2247 3.2085 21.2917 3.2085H6.70837ZM21.2917 5.54183H6.70837C6.06404 5.54183 5.54171 6.06416 5.54171 6.7085V15.7713L8.45694 13.9773C8.65095 13.858 8.8967 13.8624 9.08624 13.9888L12.1976 16.063L17.1419 12.2174C17.3526 12.0535 17.6476 12.0535 17.8582 12.2174L22.4584 15.7953V6.7085C22.4584 6.06416 21.936 5.54183 21.2917 5.54183ZM5.54171 21.2918V18.5111L8.72489 16.5522L12.3026 18.9373L17.5001 14.8948L22.4584 18.7513V21.2918C22.4584 21.9362 21.936 22.4585 21.2917 22.4585H6.70837C6.06404 22.4585 5.54171 21.9362 5.54171 21.2918Z" fill="#5C59E8"/>
</svg>
