<svg width="652" height="190" viewBox="0 0 652 190" fill="none" xmlns="http://www.w3.org/2000/svg">
<path d="M2 68H1V69V188V189H2H650H651V188V32V31H650C647.643 31 645.644 32.27 643.917 33.9367C642.203 35.5916 640.617 37.7752 639.099 39.8674L639.066 39.9125C637.509 42.0567 636.019 44.1035 634.444 45.6242C632.868 47.145 631.347 48 629.75 48C628.367 48 627.186 48.768 626.203 49.8215C625.214 50.8803 624.311 52.345 623.469 54.0192C621.788 57.358 620.228 61.7816 618.698 66.1216L618.682 66.1674C617.132 70.5627 615.611 74.8697 613.995 78.0817C613.186 79.6887 612.384 80.9584 611.585 81.8137C610.782 82.6742 610.094 83 609.5 83C605.634 83 602.62 82.5127 599.535 82.0129L599.517 82.0099C596.436 81.5107 593.285 81 589.25 81C588.565 81 587.848 80.7114 587.071 80.0689C586.287 79.4214 585.498 78.4598 584.699 77.2349C583.098 74.7795 581.587 71.481 580.034 68.0843L580.011 68.0332C578.486 64.6959 576.918 61.2663 575.226 58.6724C574.374 57.366 573.457 56.2183 572.453 55.3893C571.444 54.5552 570.292 54 569 54C564.815 54 561.552 55.5866 558.502 57.0695L558.438 57.1006C555.335 58.6089 552.444 60 548.75 60C546.459 60 544.484 61.0181 542.74 62.4047C541.019 63.7724 539.427 65.5776 537.909 67.2996L537.875 67.3387C536.318 69.105 534.835 70.7828 533.266 72.0297C531.708 73.2681 530.163 74 528.5 74C528.419 74 528.189 73.9554 527.808 73.5209C527.434 73.0945 527.026 72.4133 526.596 71.4547C525.742 69.5454 524.906 66.7669 524.084 63.3592C522.443 56.5567 520.906 47.4707 519.361 38.3333L519.356 38.3009C517.817 29.199 516.27 20.0485 514.61 13.1717C513.781 9.73565 512.911 6.81108 511.979 4.72815C511.515 3.69068 511.009 2.80347 510.446 2.16054C509.889 1.52568 509.157 1 508.25 1C505.749 1 503.727 2.8813 502.056 5.15833C500.357 7.47236 498.785 10.5295 497.262 13.492L497.236 13.5427C495.682 16.5644 494.177 19.4856 492.582 21.6583C490.951 23.8813 489.454 25 488 25C486.639 25 485.464 25.7133 484.473 26.7143C483.481 27.7167 482.574 29.1031 481.73 30.6854C480.047 33.8378 478.486 38.0126 476.956 42.1014L476.938 42.1497C475.388 46.2954 473.869 50.3503 472.256 53.3729C471.449 54.8843 470.65 56.0761 469.856 56.8784C469.06 57.682 468.366 58 467.75 58C464.014 58 461.095 56.827 458 55.5732L457.949 55.5525C454.888 54.3123 451.649 53 447.5 53C445.019 53 442.997 54.7928 441.318 56.9857C439.617 59.2061 438.044 62.1386 436.521 64.9762L436.494 65.0272C434.94 67.9238 433.436 70.7194 431.844 72.7982C430.221 74.9178 428.723 76 427.25 76C425.631 76 424.103 75.1851 422.534 73.7598C420.961 72.3309 419.474 70.4076 417.917 68.3892L417.883 68.346C416.365 66.3774 414.778 64.3194 413.061 62.7598C411.327 61.1851 409.335 60 407 60C403.386 60 400.542 58.1851 397.419 56.1609L397.326 56.1008C394.303 54.1411 391.001 52 386.75 52C382.44 52 379.11 54.6988 376.118 57.1234L375.995 57.223C372.848 59.7733 370.039 62 366.5 62C362.315 62 359.052 63.5866 356.002 65.0695L355.938 65.1006C352.835 66.6089 349.944 68 346.25 68C344.796 68 343.299 66.8813 341.668 64.6583C340.073 62.4856 338.568 59.5644 337.014 56.5427L336.988 56.492C335.465 53.5295 333.893 50.4724 332.194 48.1583C330.523 45.8813 328.501 44 326 44C323.643 44 321.644 45.27 319.917 46.9367C318.203 48.5916 316.617 50.7752 315.099 52.8674L315.066 52.9125C313.509 55.0567 312.019 57.1035 310.444 58.6242C308.868 60.145 307.347 61 305.75 61C301.44 61 298.11 63.6988 295.118 66.1235L294.995 66.223C291.848 68.7733 289.039 71 285.5 71C281.996 71 279.201 68.5703 276.04 65.7535L275.902 65.6305C272.927 62.9774 269.587 60 265.25 60C262.808 60 260.792 61.6167 259.096 63.6386C257.39 65.6715 255.813 68.3553 254.292 70.9439L254.263 70.9933C252.708 73.6395 251.209 76.1844 249.622 78.0761C248.015 79.9917 246.512 81 245 81C243.314 81 241.76 80.3112 240.206 79.1642C238.638 78.0075 237.157 76.4515 235.6 74.8115L235.566 74.7749C234.047 73.1759 232.454 71.4978 230.732 70.2267C228.984 68.9362 227.018 68 224.75 68C224.065 68 223.348 67.7114 222.571 67.069C221.787 66.4214 220.998 65.4598 220.199 64.2349C218.598 61.7795 217.087 58.481 215.534 55.0843L215.511 55.0335C213.986 51.6961 212.418 48.2664 210.726 45.6724C209.874 44.366 208.957 43.2183 207.953 42.3893C206.944 41.5552 205.792 41 204.5 41C203.046 41 201.549 39.8813 199.918 37.6583C198.323 35.4856 196.818 32.5644 195.264 29.5427L195.238 29.492C193.715 26.5295 192.143 23.4724 190.444 21.1583C188.773 18.8813 186.751 17 184.25 17C182.958 17 181.806 17.5552 180.797 18.3893C179.793 19.2183 178.876 20.366 178.024 21.6724C176.332 24.2664 174.764 27.6961 173.239 31.0335L173.216 31.0843C171.663 34.481 170.152 37.7795 168.551 40.2349C167.752 41.4598 166.963 42.4214 166.179 43.069C165.402 43.7114 164.685 44 164 44C162.685 44 161.524 44.6068 160.52 45.4982C159.52 46.3858 158.606 47.6137 157.757 49.0121C156.068 51.7924 154.503 55.4704 152.976 59.0579L152.955 59.1084C151.403 62.7549 149.89 66.3054 148.284 68.9496C147.482 70.27 146.689 71.3076 145.902 72.006C145.12 72.7005 144.412 73 143.75 73C140.246 73 137.451 70.5703 134.29 67.7535L134.152 67.6305C131.177 64.9774 127.837 62 123.5 62C119.961 62 117.152 59.7733 114.005 57.223L113.882 57.1235C110.89 54.6988 107.56 52 103.25 52C101.901 52 100.729 52.6863 99.7341 53.6605C98.7395 54.6345 97.8314 55.9815 96.9857 57.5178C95.3018 60.5771 93.7396 64.6275 92.211 68.5908L92.192 68.6402C90.6412 72.6611 89.1238 76.5898 87.5122 79.5178C86.7065 80.9815 85.909 82.1345 85.1166 82.9105C84.3244 83.6863 83.6276 84 83 84C80.6646 84 78.673 85.1851 76.9394 86.7598C75.2225 88.3194 73.6351 90.3773 72.1166 92.3459L72.0832 92.3892C70.5263 94.4076 69.0389 96.3309 67.4658 97.7598C65.8968 99.1851 64.3686 100 62.75 100C61.2964 100 59.7994 98.8813 58.168 96.6583C56.5733 94.4856 55.0682 91.5644 53.5143 88.5427L53.4882 88.492C51.9648 85.5295 50.3927 82.4724 48.6944 80.1583C47.0233 77.8813 45.0005 76 42.5 76C38.4261 76 35.2431 76.7737 32.1669 77.5215L32.1388 77.5283C29.0528 78.2784 26.0718 79 22.25 79C18.7463 79 15.9509 76.5703 12.7904 73.7535L12.6524 73.6305C9.67676 70.9774 6.33727 68 2 68Z" fill="url(#paint0_linear_102_5720)" fill-opacity="0.5" stroke="#E46A11" stroke-width="2"/>
<defs>
<linearGradient id="paint0_linear_102_5720" x1="326" y1="-109.196" x2="326" y2="178.088" gradientUnits="userSpaceOnUse">
<stop stop-color="#E98841"/>
<stop offset="0.998794" stop-color="white" stop-opacity="0"/>
</linearGradient>
</defs>
</svg>
