<svg width="652" height="210" viewBox="0 0 652 210" fill="none" xmlns="http://www.w3.org/2000/svg">
<path d="M2 64H1V65V208V209H2H650H651V208V76V75H650C647.643 75 645.644 76.27 643.917 77.9367C642.203 79.5916 640.617 81.7753 639.098 83.8675L639.066 83.9125C637.509 86.0567 636.019 88.1035 634.444 89.6242C632.868 91.145 631.347 92 629.75 92C629.088 92 628.38 91.7005 627.598 91.006C626.811 90.3076 626.018 89.27 625.216 87.9496C623.61 85.3054 622.097 81.7549 620.545 78.1084L620.523 78.057C618.997 74.4697 617.431 70.7921 615.743 68.0121C614.894 66.6137 613.98 65.3858 612.98 64.4982C611.976 63.6068 610.815 63 609.5 63C608.174 63 607.009 63.633 606.007 64.5524C605.009 65.469 604.097 66.7368 603.249 68.1812C601.563 71.0541 599.999 74.8556 598.471 78.568L598.45 78.6195C596.899 82.3909 595.384 86.0674 593.776 88.8062C592.973 90.1743 592.179 91.2503 591.39 91.9743C590.604 92.6955 589.901 93 589.25 93C586.808 93 584.792 94.6167 583.096 96.6386C581.391 98.6715 579.813 101.355 578.292 103.944L578.263 103.993C576.708 106.64 575.209 109.184 573.622 111.076C572.015 112.992 570.512 114 569 114C568.303 114 567.582 113.717 566.806 113.1C566.024 112.478 565.237 111.554 564.44 110.377C562.84 108.016 561.331 104.843 559.778 101.571L559.754 101.52C558.229 98.308 556.66 95.0024 554.966 92.5016C554.112 91.2414 553.194 90.1341 552.189 89.3347C551.177 88.5298 550.03 88 548.75 88C547.175 88 545.659 87.1057 544.076 85.4881C542.498 83.8752 541.006 81.7043 539.45 79.4345L539.417 79.3869C537.898 77.1712 536.315 74.8627 534.603 73.1131C532.883 71.3557 530.879 70 528.5 70C524.281 70 520.997 71.863 517.96 73.5858L517.882 73.6302C514.77 75.3951 511.903 77 508.25 77C506.631 77 505.103 76.1851 503.534 74.7598C501.961 73.3309 500.474 71.4076 498.917 69.3892L498.883 69.346C497.365 67.3774 495.778 65.3194 494.061 63.7598C492.327 62.1851 490.335 61 488 61C487.361 61 486.661 60.6908 485.872 59.9425C485.081 59.1925 484.286 58.0781 483.481 56.6622C481.871 53.8289 480.355 50.0263 478.804 46.1301L478.784 46.0798C477.256 42.2419 475.693 38.3159 474.008 35.3497C473.161 33.8594 472.251 32.5519 471.254 31.6066C470.256 30.6595 469.088 30 467.75 30C467.088 30 466.38 29.7005 465.598 29.006C464.811 28.3076 464.018 27.27 463.216 25.9496C461.61 23.3054 460.097 19.7549 458.545 16.1084L458.524 16.0583C456.997 12.4706 455.432 8.79245 453.743 6.01213C452.894 4.61375 451.98 3.38577 450.98 2.49816C449.976 1.60677 448.815 1 447.5 1C445.99 1 444.794 2.10855 443.863 3.44869C442.898 4.83677 442.01 6.76516 441.175 8.99282C439.506 13.4468 437.953 19.3605 436.419 25.2047L436.408 25.246C434.861 31.1384 433.331 36.9573 431.702 41.3053C430.885 43.4839 430.067 45.2274 429.245 46.4096C428.39 47.6398 427.717 48 427.25 48C422.999 48 419.697 50.1411 416.674 52.1008L416.581 52.1609C413.458 54.1851 410.614 56 407 56C403.386 56 400.542 54.1851 397.419 52.1609L397.326 52.1008C394.303 50.1411 391.001 48 386.75 48C383.056 48 380.165 46.6089 377.062 45.1006L376.998 45.0695C373.948 43.5866 370.685 42 366.5 42C364.038 42 362.019 43.7046 360.331 45.8125C358.628 47.9393 357.053 50.7478 355.531 53.461L355.503 53.5107C353.948 56.2822 352.447 58.9523 350.858 60.9375C349.243 62.9546 347.742 64 346.25 64C345.622 64 344.926 63.6863 344.133 62.9105C343.341 62.1345 342.544 60.9815 341.738 59.5178C340.126 56.5898 338.609 52.6611 337.058 48.6402L337.039 48.5904C335.51 44.6272 333.948 40.577 332.264 37.5178C331.419 35.9815 330.51 34.6345 329.516 33.6605C328.521 32.6863 327.349 32 326 32C323.643 32 321.644 33.27 319.917 34.9367C318.203 36.5916 316.617 38.7752 315.099 40.8674L315.066 40.9125C313.509 43.0567 312.019 45.1035 310.444 46.6242C308.868 48.145 307.347 49 305.75 49C301.44 49 298.11 51.6988 295.118 54.1234L294.995 54.223C291.848 56.7733 289.039 59 285.5 59C281.351 59 278.112 60.3123 275.051 61.5525L275 61.5732C271.905 62.827 268.986 64 265.25 64C261.746 64 258.951 61.5703 255.79 58.7535L255.652 58.6305C252.677 55.9774 249.337 53 245 53C240.663 53 237.323 55.9774 234.348 58.6305L234.21 58.7535C231.049 61.5703 228.254 64 224.75 64C220.601 64 217.362 65.3123 214.301 66.5525L214.25 66.5732C211.155 67.827 208.236 69 204.5 69C202.165 69 200.173 70.1851 198.439 71.7598C196.722 73.3194 195.135 75.3773 193.617 77.3459L193.583 77.3892C192.026 79.4076 190.539 81.3309 188.966 82.7598C187.397 84.1851 185.869 85 184.25 85C179.913 85 176.573 87.9774 173.598 90.6305L173.46 90.7535C170.299 93.5703 167.504 96 164 96C162.446 96 160.936 95.0672 159.345 93.3514C157.764 91.6459 156.27 89.3507 154.714 86.9553L154.682 86.9074C153.163 84.5674 151.581 82.1333 149.872 80.2889C148.16 78.4422 146.15 77 143.75 77C143.065 77 142.348 76.7114 141.571 76.069C140.787 75.4214 139.998 74.4598 139.199 73.2349C137.598 70.7795 136.087 67.4809 134.534 64.0843L134.511 64.0335C132.986 60.6961 131.418 57.2664 129.726 54.6724C128.874 53.366 127.957 52.2183 126.953 51.3893C125.944 50.5552 124.792 50 123.5 50C122.083 50 120.897 50.8514 119.926 51.9808C118.943 53.1232 118.045 54.7047 117.205 56.517C115.528 60.1341 113.97 64.9294 112.439 69.645L112.424 69.6911C110.875 74.4607 109.351 79.1459 107.731 82.642C106.92 84.3922 106.113 85.7794 105.308 86.7152C104.492 87.6639 103.81 88 103.25 88C99.6361 88 96.7917 86.1851 93.6689 84.1609L93.5762 84.1008C90.5533 82.141 87.2507 80 83 80C80.6646 80 78.673 81.1851 76.9394 82.7598C75.2225 84.3194 73.6351 86.3773 72.1166 88.3459L72.0832 88.3892C70.5263 90.4076 69.0389 92.3309 67.4658 93.7598C65.8968 95.1851 64.3686 96 62.75 96C61.2964 96 59.7994 94.8813 58.168 92.6583C56.5733 90.4856 55.0682 87.5644 53.5143 84.5427L53.4882 84.492C51.9648 81.5295 50.3927 78.4724 48.6944 76.1583C47.0233 73.8813 45.0005 72 42.5 72C38.4261 72 35.2431 72.7737 32.1669 73.5215L32.1388 73.5283C29.0528 74.2784 26.0718 75 22.25 75C18.7463 75 15.9509 72.5703 12.7904 69.7535L12.6524 69.6305C9.67676 66.9774 6.33727 64 2 64Z" fill="url(#paint0_linear_102_5719)" fill-opacity="0.5" stroke="#5C59E8" stroke-width="2"/>
<defs>
<linearGradient id="paint0_linear_102_5719" x1="326" y1="-56.7133" x2="326" y2="199.171" gradientUnits="userSpaceOnUse">
<stop stop-color="#7D7AED"/>
<stop offset="0.998794" stop-color="white" stop-opacity="0"/>
</linearGradient>
</defs>
</svg>
