<svg width="18" height="18" viewBox="0 0 18 18" fill="none" xmlns="http://www.w3.org/2000/svg">
<path fill-rule="evenodd" clip-rule="evenodd" d="M8.98351 5.68937L7.92285 4.6287C6.75127 3.45713 4.85177 3.4571 3.6802 4.62867C2.50865 5.80022 2.50865 7.69969 3.68019 8.87127L8.98345 14.1746L14.2737 8.88438L14.2868 8.87134C15.4584 7.69978 15.4584 5.80029 14.2868 4.62871C13.1152 3.45714 11.2157 3.45713 10.0442 4.62869L8.98351 5.68937ZM2.61948 9.93195C0.862159 8.17459 0.862204 5.32534 2.61954 3.568C4.37689 1.81066 7.22612 1.81067 8.98348 3.56803C10.7408 1.81068 13.5901 1.81069 15.3475 3.56806C17.1048 5.32542 17.1048 8.17466 15.3475 9.932L15.3279 9.95147L9.77894 15.5004C9.33961 15.9398 8.6273 15.9398 8.18796 15.5004L2.61948 9.93195Z" fill="#F04438"/>
</svg>
