<svg width="21" height="20" viewBox="0 0 21 20" fill="none" xmlns="http://www.w3.org/2000/svg">
<path d="M5.33333 6.66665C5.33333 6.20641 5.70643 5.83331 6.16667 5.83331H14.5C14.9602 5.83331 15.3333 6.20641 15.3333 6.66665C15.3333 7.12688 14.9602 7.49998 14.5 7.49998H6.16667C5.70643 7.49998 5.33333 7.12688 5.33333 6.66665Z" fill="#667085"/>
<path d="M5.33333 9.99998C5.33333 9.53974 5.70643 9.16665 6.16667 9.16665H10.3333C10.7936 9.16665 11.1667 9.53974 11.1667 9.99998C11.1667 10.4602 10.7936 10.8333 10.3333 10.8333H6.16667C5.70643 10.8333 5.33333 10.4602 5.33333 9.99998Z" fill="#667085"/>
<path fill-rule="evenodd" clip-rule="evenodd" d="M2 12.0833C2 13.464 3.11929 14.5833 4.5 14.5833H7V16.8298C7 17.4843 7.71996 17.8833 8.275 17.5364L13 14.5833H16.1667C17.5474 14.5833 18.6667 13.464 18.6667 12.0833V4.58331C18.6667 3.2026 17.5474 2.08331 16.1667 2.08331H4.5C3.11929 2.08331 2 3.2026 2 4.58331V12.0833ZM8.66667 15.3262V12.9166H4.5C4.03976 12.9166 3.66667 12.5436 3.66667 12.0833V4.58331C3.66667 4.12308 4.03976 3.74998 4.5 3.74998H16.1667C16.6269 3.74998 17 4.12308 17 4.58331V12.0833C17 12.5435 16.6269 12.9166 16.1667 12.9166H12.522L8.66667 15.3262Z" fill="#667085"/>
</svg>
