<svg width="20" height="20" viewBox="0 0 20 20" fill="none" xmlns="http://www.w3.org/2000/svg">
<path d="M5.00001 6.66683C5.00001 6.20659 5.3731 5.8335 5.83334 5.8335H14.1667C14.6269 5.8335 15 6.20659 15 6.66683C15 7.12707 14.6269 7.50016 14.1667 7.50016H5.83334C5.3731 7.50016 5.00001 7.12707 5.00001 6.66683Z" fill="#667085"/>
<path d="M5.00001 10.0002C5.00001 9.53992 5.3731 9.16683 5.83334 9.16683H10C10.4602 9.16683 10.8333 9.53992 10.8333 10.0002C10.8333 10.4604 10.4602 10.8335 10 10.8335H5.83334C5.3731 10.8335 5.00001 10.4604 5.00001 10.0002Z" fill="#667085"/>
<path fill-rule="evenodd" clip-rule="evenodd" d="M1.66667 12.0835C1.66667 13.4642 2.78596 14.5835 4.16667 14.5835H6.66667V16.83C6.66667 17.4845 7.38663 17.8835 7.94167 17.5366L12.6667 14.5835H15.8333C17.2141 14.5835 18.3333 13.4642 18.3333 12.0835V4.5835C18.3333 3.20278 17.2141 2.0835 15.8333 2.0835H4.16667C2.78596 2.0835 1.66667 3.20278 1.66667 4.5835V12.0835ZM8.33334 15.3264V12.9168H4.16667C3.70643 12.9168 3.33334 12.5437 3.33334 12.0835V4.5835C3.33334 4.12326 3.70643 3.75016 4.16667 3.75016H15.8333C16.2936 3.75016 16.6667 4.12326 16.6667 4.5835V12.0835C16.6667 12.5437 16.2936 12.9168 15.8333 12.9168H12.1887L8.33334 15.3264Z" fill="#667085"/>
</svg>
