<svg width="20" height="20" viewBox="0 0 20 20" fill="none" xmlns="http://www.w3.org/2000/svg">
<path d="M4.99996 6.66659C4.99996 6.20635 5.37306 5.83325 5.83329 5.83325H14.1666C14.6269 5.83325 15 6.20635 15 6.66659C15 7.12682 14.6269 7.49992 14.1666 7.49992H5.83329C5.37306 7.49992 4.99996 7.12682 4.99996 6.66659Z" fill="#667085"/>
<path d="M4.99996 9.99992C4.99996 9.53968 5.37306 9.16659 5.83329 9.16659H9.99996C10.4602 9.16659 10.8333 9.53968 10.8333 9.99992C10.8333 10.4602 10.4602 10.8333 9.99996 10.8333H5.83329C5.37306 10.8333 4.99996 10.4602 4.99996 9.99992Z" fill="#667085"/>
<path fill-rule="evenodd" clip-rule="evenodd" d="M1.66663 12.0833C1.66663 13.464 2.78591 14.5833 4.16663 14.5833H6.66663V16.8297C6.66663 17.4842 7.38659 17.8833 7.94163 17.5364L12.6666 14.5833H15.8333C17.214 14.5833 18.3333 13.464 18.3333 12.0833V4.58325C18.3333 3.20254 17.214 2.08325 15.8333 2.08325H4.16663C2.78591 2.08325 1.66663 3.20254 1.66663 4.58325V12.0833ZM8.33329 15.3262V12.9166H4.16663C3.70639 12.9166 3.33329 12.5435 3.33329 12.0833V4.58325C3.33329 4.12301 3.70639 3.74992 4.16663 3.74992H15.8333C16.2935 3.74992 16.6666 4.12301 16.6666 4.58325V12.0833C16.6666 12.5435 16.2935 12.9166 15.8333 12.9166H12.1886L8.33329 15.3262Z" fill="#667085"/>
</svg>
