<svg width="20" height="20" viewBox="0 0 20 20" fill="none" xmlns="http://www.w3.org/2000/svg">
<path d="M4.99996 6.66634C4.99996 6.2061 5.37306 5.83301 5.83329 5.83301H14.1666C14.6269 5.83301 15 6.2061 15 6.66634C15 7.12658 14.6269 7.49967 14.1666 7.49967H5.83329C5.37306 7.49967 4.99996 7.12658 4.99996 6.66634Z" fill="#667085"/>
<path d="M4.99996 9.99967C4.99996 9.53944 5.37306 9.16634 5.83329 9.16634H9.99996C10.4602 9.16634 10.8333 9.53944 10.8333 9.99967C10.8333 10.4599 10.4602 10.833 9.99996 10.833H5.83329C5.37306 10.833 4.99996 10.4599 4.99996 9.99967Z" fill="#667085"/>
<path fill-rule="evenodd" clip-rule="evenodd" d="M1.66663 12.083C1.66663 13.4637 2.78591 14.583 4.16663 14.583H6.66663V16.8295C6.66663 17.484 7.38659 17.883 7.94163 17.5361L12.6666 14.583H15.8333C17.214 14.583 18.3333 13.4637 18.3333 12.083V4.58301C18.3333 3.2023 17.214 2.08301 15.8333 2.08301H4.16663C2.78591 2.08301 1.66663 3.2023 1.66663 4.58301V12.083ZM8.33329 15.3259V12.9163H4.16663C3.70639 12.9163 3.33329 12.5432 3.33329 12.083V4.58301C3.33329 4.12277 3.70639 3.74967 4.16663 3.74967H15.8333C16.2935 3.74967 16.6666 4.12277 16.6666 4.58301V12.083C16.6666 12.5432 16.2935 12.9163 15.8333 12.9163H12.1886L8.33329 15.3259Z" fill="#667085"/>
</svg>
