<svg width="20" height="20" viewBox="0 0 20 20" fill="none" xmlns="http://www.w3.org/2000/svg">
<path d="M5.00008 6.66683C5.00008 6.20659 5.37318 5.8335 5.83341 5.8335H14.1667C14.627 5.8335 15.0001 6.20659 15.0001 6.66683C15.0001 7.12707 14.627 7.50016 14.1667 7.50016H5.83341C5.37318 7.50016 5.00008 7.12707 5.00008 6.66683Z" fill="#667085"/>
<path d="M5.00008 10.0002C5.00008 9.53992 5.37318 9.16683 5.83341 9.16683H10.0001C10.4603 9.16683 10.8334 9.53992 10.8334 10.0002C10.8334 10.4604 10.4603 10.8335 10.0001 10.8335H5.83341C5.37318 10.8335 5.00008 10.4604 5.00008 10.0002Z" fill="#667085"/>
<path fill-rule="evenodd" clip-rule="evenodd" d="M1.66675 12.0835C1.66675 13.4642 2.78604 14.5835 4.16675 14.5835H6.66675V16.83C6.66675 17.4845 7.38671 17.8835 7.94175 17.5366L12.6667 14.5835H15.8334C17.2141 14.5835 18.3334 13.4642 18.3334 12.0835V4.5835C18.3334 3.20278 17.2141 2.0835 15.8334 2.0835H4.16675C2.78604 2.0835 1.66675 3.20278 1.66675 4.5835V12.0835ZM8.33342 15.3264V12.9168H4.16675C3.70651 12.9168 3.33341 12.5437 3.33341 12.0835V4.5835C3.33341 4.12326 3.70651 3.75016 4.16675 3.75016H15.8334C16.2937 3.75016 16.6667 4.12326 16.6667 4.5835V12.0835C16.6667 12.5437 16.2937 12.9168 15.8334 12.9168H12.1888L8.33342 15.3264Z" fill="#667085"/>
</svg>
