<svg width="20" height="20" viewBox="0 0 20 20" fill="none" xmlns="http://www.w3.org/2000/svg">
<path d="M4.99996 6.66683C4.99996 6.20659 5.37306 5.8335 5.83329 5.8335H14.1666C14.6269 5.8335 15 6.20659 15 6.66683C15 7.12707 14.6269 7.50016 14.1666 7.50016H5.83329C5.37306 7.50016 4.99996 7.12707 4.99996 6.66683Z" fill="#667085"/>
<path d="M4.99996 10.0002C4.99996 9.53992 5.37306 9.16683 5.83329 9.16683H9.99996C10.4602 9.16683 10.8333 9.53992 10.8333 10.0002C10.8333 10.4604 10.4602 10.8335 9.99996 10.8335H5.83329C5.37306 10.8335 4.99996 10.4604 4.99996 10.0002Z" fill="#667085"/>
<path fill-rule="evenodd" clip-rule="evenodd" d="M1.66663 12.0835C1.66663 13.4642 2.78591 14.5835 4.16663 14.5835H6.66663V16.83C6.66663 17.4845 7.38659 17.8835 7.94163 17.5366L12.6666 14.5835H15.8333C17.214 14.5835 18.3333 13.4642 18.3333 12.0835V4.5835C18.3333 3.20278 17.214 2.0835 15.8333 2.0835H4.16663C2.78591 2.0835 1.66663 3.20278 1.66663 4.5835V12.0835ZM8.33329 15.3264V12.9168H4.16663C3.70639 12.9168 3.33329 12.5437 3.33329 12.0835V4.5835C3.33329 4.12326 3.70639 3.75016 4.16663 3.75016H15.8333C16.2935 3.75016 16.6666 4.12326 16.6666 4.5835V12.0835C16.6666 12.5437 16.2935 12.9168 15.8333 12.9168H12.1886L8.33329 15.3264Z" fill="#667085"/>
</svg>
