<svg width="20" height="20" viewBox="0 0 20 20" fill="none" xmlns="http://www.w3.org/2000/svg">
<path d="M4.99996 6.66671C4.99996 6.20647 5.37306 5.83337 5.83329 5.83337H14.1666C14.6269 5.83337 15 6.20647 15 6.66671C15 7.12694 14.6269 7.50004 14.1666 7.50004H5.83329C5.37306 7.50004 4.99996 7.12694 4.99996 6.66671Z" fill="#667085"/>
<path d="M4.99996 10C4.99996 9.5398 5.37306 9.16671 5.83329 9.16671H9.99996C10.4602 9.16671 10.8333 9.5398 10.8333 10C10.8333 10.4603 10.4602 10.8334 9.99996 10.8334H5.83329C5.37306 10.8334 4.99996 10.4603 4.99996 10Z" fill="#667085"/>
<path fill-rule="evenodd" clip-rule="evenodd" d="M1.66663 12.0834C1.66663 13.4641 2.78591 14.5834 4.16663 14.5834H6.66663V16.8298C6.66663 17.4844 7.38659 17.8834 7.94163 17.5365L12.6666 14.5834H15.8333C17.214 14.5834 18.3333 13.4641 18.3333 12.0834V4.58337C18.3333 3.20266 17.214 2.08337 15.8333 2.08337H4.16663C2.78591 2.08337 1.66663 3.20266 1.66663 4.58337V12.0834ZM8.33329 15.3263V12.9167H4.16663C3.70639 12.9167 3.33329 12.5436 3.33329 12.0834V4.58337C3.33329 4.12314 3.70639 3.75004 4.16663 3.75004H15.8333C16.2935 3.75004 16.6666 4.12314 16.6666 4.58337V12.0834C16.6666 12.5436 16.2935 12.9167 15.8333 12.9167H12.1886L8.33329 15.3263Z" fill="#667085"/>
</svg>
