<svg width="20" height="20" viewBox="0 0 20 20" fill="none" xmlns="http://www.w3.org/2000/svg">
<path d="M5.00001 6.66634C5.00001 6.2061 5.3731 5.83301 5.83334 5.83301H14.1667C14.6269 5.83301 15 6.2061 15 6.66634C15 7.12658 14.6269 7.49967 14.1667 7.49967H5.83334C5.3731 7.49967 5.00001 7.12658 5.00001 6.66634Z" fill="#667085"/>
<path d="M5.00001 9.99967C5.00001 9.53944 5.3731 9.16634 5.83334 9.16634H10C10.4602 9.16634 10.8333 9.53944 10.8333 9.99967C10.8333 10.4599 10.4602 10.833 10 10.833H5.83334C5.3731 10.833 5.00001 10.4599 5.00001 9.99967Z" fill="#667085"/>
<path fill-rule="evenodd" clip-rule="evenodd" d="M1.66667 12.083C1.66667 13.4637 2.78596 14.583 4.16667 14.583H6.66667V16.8295C6.66667 17.484 7.38663 17.883 7.94167 17.5361L12.6667 14.583H15.8333C17.2141 14.583 18.3333 13.4637 18.3333 12.083V4.58301C18.3333 3.2023 17.2141 2.08301 15.8333 2.08301H4.16667C2.78596 2.08301 1.66667 3.2023 1.66667 4.58301V12.083ZM8.33334 15.3259V12.9163H4.16667C3.70643 12.9163 3.33334 12.5432 3.33334 12.083V4.58301C3.33334 4.12277 3.70643 3.74967 4.16667 3.74967H15.8333C16.2936 3.74967 16.6667 4.12277 16.6667 4.58301V12.083C16.6667 12.5432 16.2936 12.9163 15.8333 12.9163H12.1887L8.33334 15.3259Z" fill="#667085"/>
</svg>
