<svg width="21" height="20" viewBox="0 0 21 20" fill="none" xmlns="http://www.w3.org/2000/svg">
<path fill-rule="evenodd" clip-rule="evenodd" d="M17.638 6.8201C18.6143 5.84379 18.6143 4.26087 17.638 3.28456L17.0487 2.69531C16.0724 1.719 14.4895 1.719 13.5132 2.69531L4.02422 12.1843C3.67949 12.529 3.44308 12.967 3.34408 13.4444L2.67436 16.6737C2.55258 17.2609 3.07231 17.7807 3.65954 17.6589L6.8889 16.9892C7.36627 16.8902 7.80428 16.6538 8.14902 16.309L17.638 6.8201ZM16.4594 4.46307L15.8702 3.87382C15.5448 3.54838 15.0171 3.54838 14.6917 3.87382L13.8078 4.75773L15.5755 6.5255L16.4594 5.64158C16.7849 5.31615 16.7849 4.78851 16.4594 4.46307ZM14.397 7.70401L12.6293 5.93624L5.20273 13.3628C5.08782 13.4777 5.00902 13.6237 4.97602 13.7828L4.56407 15.7692L6.55047 15.3572C6.70959 15.3242 6.85559 15.2454 6.97051 15.1305L14.397 7.70401Z" fill="#667085"/>
</svg>
