<svg width="21" height="20" viewBox="0 0 21 20" fill="none" xmlns="http://www.w3.org/2000/svg">
<path fill-rule="evenodd" clip-rule="evenodd" d="M17.8047 6.81991C18.781 5.8436 18.781 4.26069 17.8047 3.28438L17.2155 2.69512C16.2391 1.71881 14.6562 1.71881 13.6799 2.69512L4.19097 12.1841C3.84624 12.5288 3.60982 12.9668 3.51082 13.4442L2.84111 16.6735C2.71932 17.2607 3.23906 17.7805 3.82629 17.6587L7.05565 16.989C7.53302 16.89 7.97103 16.6536 8.31577 16.3089L17.8047 6.81991ZM16.6262 4.46289L16.0369 3.87363C15.7115 3.5482 15.1839 3.5482 14.8584 3.87363L13.9745 4.75755L15.7423 6.52531L16.6262 5.6414C16.9516 5.31596 16.9516 4.78833 16.6262 4.46289ZM14.5638 7.70382L12.796 5.93606L5.36948 13.3626C5.25457 13.4775 5.17577 13.6235 5.14277 13.7826L4.73082 15.769L6.71721 15.3571C6.87634 15.3241 7.02234 15.2453 7.13726 15.1303L14.5638 7.70382Z" fill="#5C59E8"/>
</svg>
