<svg width="21" height="20" viewBox="0 0 21 20" fill="none" xmlns="http://www.w3.org/2000/svg">
<g clip-path="url(#clip0_102_74951)">
<path fill-rule="evenodd" clip-rule="evenodd" d="M16.9775 15.5495L14.5194 13.0913L12.8976 15.239L12.3083 15.0064L12.3046 15.0049L12.2972 15.002L12.2721 14.9918C12.2508 14.9831 12.2205 14.9707 12.1821 14.9546C12.1054 14.9224 11.9961 14.8754 11.8611 14.8145C11.5913 14.693 11.2167 14.5151 10.7923 14.2875C9.9553 13.8386 8.87502 13.1705 8.03424 12.3297C7.19347 11.4889 6.52526 10.4086 6.07638 9.57159C5.84877 9.14717 5.6708 8.77247 5.54924 8.50273C5.48837 8.36766 5.44139 8.25835 5.40917 8.18164C5.39305 8.14327 5.3806 8.113 5.37193 8.0917L5.36177 8.06656L5.35884 8.05921L5.35759 8.05605L5.12472 7.46619L7.27245 5.84437L4.81429 3.38622C4.32687 4.18271 3.69979 5.53721 3.69578 7.22135C3.69163 8.96788 4.35659 11.1781 6.77122 13.5927C9.18587 16.0074 11.3961 16.6723 13.1425 16.6681C14.8266 16.664 16.1811 16.0369 16.9775 15.5495ZM7.16044 8.01743L8.27681 7.17443C9.08446 6.56455 9.16659 5.38149 8.45096 4.66586L5.92087 2.13578C5.26291 1.47782 4.0754 1.44543 3.4891 2.36217C2.89568 3.29002 2.03437 5.01139 2.02912 7.21739C2.0238 9.45345 2.89875 12.0773 5.59271 14.7712C8.28669 17.4652 10.9105 18.3401 13.1465 18.3348C15.3525 18.3294 17.0738 17.4681 18.0016 16.8746C18.9183 16.2883 18.8859 15.1008 18.228 14.4429L15.6979 11.9128C14.9822 11.1971 13.7992 11.2793 13.1893 12.0869L12.3463 13.2033C12.1307 13.1023 11.8679 12.9731 11.5799 12.8187C10.7996 12.4002 9.88453 11.823 9.21275 11.1512C8.54097 10.4794 7.96366 9.56426 7.54516 8.7839C7.3907 8.49588 7.26146 8.23304 7.16044 8.01743Z" fill="#667085"/>
</g>
<defs>
<clipPath id="clip0_102_74951">
<rect width="20" height="20" fill="white" transform="translate(0.333252)"/>
</clipPath>
</defs>
</svg>
