<svg width="24" height="24" viewBox="0 0 24 24" fill="none" xmlns="http://www.w3.org/2000/svg">
<g clip-path="url(#clip0_102_7608)">
<path fill-rule="evenodd" clip-rule="evenodd" d="M19.9731 18.6595L17.0233 15.7097L15.0771 18.2869L14.37 18.0078L14.3655 18.006L14.3567 18.0025L14.3265 17.9903C14.301 17.9799 14.2646 17.965 14.2186 17.9456C14.1266 17.907 13.9954 17.8506 13.8333 17.7776C13.5097 17.6317 13.06 17.4182 12.5508 17.1451C11.5464 16.6065 10.2501 15.8047 9.24114 14.7958C8.23221 13.7869 7.43036 12.4904 6.89171 11.486C6.61857 10.9767 6.40501 10.5271 6.25914 10.2034C6.18609 10.0413 6.12972 9.91014 6.09105 9.81809C6.07171 9.77204 6.05677 9.73573 6.04637 9.71016L6.03418 9.67999L6.03066 9.67118L6.02915 9.66739L5.74971 8.95955L8.32699 7.01337L5.3772 4.06359C4.7923 5.01938 4.0398 6.64477 4.03499 8.66575C4.03 10.7616 4.82796 13.4138 7.72552 16.3114C10.6231 19.209 13.2753 20.0069 15.3711 20.0018C17.392 19.997 19.0173 19.2444 19.9731 18.6595ZM8.19257 9.62104L9.53222 8.60943C10.5014 7.87758 10.6 6.45791 9.7412 5.59916L6.7051 2.56305C5.91555 1.7735 4.49053 1.73464 3.78696 2.83472C3.07486 3.94815 2.0413 6.01379 2.035 8.66099C2.02861 11.3443 3.07855 14.4929 6.3113 17.7256C9.54408 20.9584 12.6927 22.0083 15.3759 22.0018C18.0231 21.9955 20.0886 20.9618 21.202 20.2497C22.302 19.5461 22.2631 18.1211 21.4736 17.3316L18.4375 14.2954C17.5787 13.4367 16.1591 13.5352 15.4272 14.5044L14.4156 15.8441C14.1569 15.7229 13.8415 15.5678 13.496 15.3825C12.5596 14.8804 11.4615 14.1877 10.6553 13.3816C9.84921 12.5754 9.15644 11.4772 8.65425 10.5408C8.46889 10.1952 8.3138 9.87977 8.19257 9.62104Z" fill="#667085"/>
</g>
<defs>
<clipPath id="clip0_102_7608">
<rect width="24" height="24" fill="white"/>
</clipPath>
</defs>
</svg>
