<svg width="20" height="20" viewBox="0 0 20 20" fill="none" xmlns="http://www.w3.org/2000/svg">
<g clip-path="url(#clip0_102_72557)">
<path fill-rule="evenodd" clip-rule="evenodd" d="M16.6443 15.5494L14.1861 13.0912L12.5643 15.2389L11.975 15.0063L11.9713 15.0048L11.9639 15.0019L11.9388 14.9917C11.9175 14.9831 11.8872 14.9706 11.8489 14.9545C11.7722 14.9223 11.6629 14.8753 11.5278 14.8145C11.2581 14.6929 10.8834 14.515 10.459 14.2874C9.62204 13.8386 8.54175 13.1704 7.70097 12.3297C6.8602 11.4889 6.19199 10.4085 5.74311 9.57153C5.5155 9.14711 5.33753 8.77241 5.21597 8.50267C5.1551 8.3676 5.10812 8.25829 5.0759 8.18158C5.05978 8.14321 5.04733 8.11294 5.03866 8.09164L5.02851 8.06649L5.02557 8.05915L5.02432 8.05599L4.79145 7.46613L6.93918 5.84431L4.48103 3.38616C3.99361 4.18265 3.36653 5.53715 3.36252 7.22129C3.35836 8.96782 4.02332 11.178 6.43796 13.5927C8.8526 16.0073 11.0628 16.6722 12.8093 16.668C14.4934 16.664 15.8478 16.0368 16.6443 15.5494ZM6.82717 8.01737L7.94354 7.17436C8.75119 6.56448 8.83332 5.38143 8.11769 4.6658L5.58761 2.13572C4.92965 1.47776 3.74213 1.44537 3.15583 2.36211C2.56241 3.28996 1.70111 5.01133 1.69585 7.21733C1.69053 9.45339 2.56548 12.0772 5.25945 14.7712C7.95342 17.4652 10.5772 18.3401 12.8133 18.3347C15.0193 18.3294 16.7406 17.468 17.6684 16.8746C18.5851 16.2882 18.5526 15.1008 17.8947 14.4428L15.3646 11.9127C14.649 11.1971 13.4659 11.2792 12.856 12.0869L12.013 13.2032C11.7974 13.1022 11.5346 12.973 11.2467 12.8186C10.4664 12.4002 9.55126 11.8229 8.87948 11.1511C8.2077 10.4794 7.63039 9.5642 7.2119 8.78384C7.05744 8.49582 6.92819 8.23298 6.82717 8.01737Z" fill="#667085"/>
</g>
<defs>
<clipPath id="clip0_102_72557">
<rect width="20" height="20" fill="white"/>
</clipPath>
</defs>
</svg>
