<svg width="21" height="20" viewBox="0 0 21 20" fill="none" xmlns="http://www.w3.org/2000/svg">
<path d="M13.0001 9.1665C12.5398 9.1665 12.1667 9.5396 12.1667 9.99984C12.1667 10.4601 12.5398 10.8332 13.0001 10.8332H14.6667C15.127 10.8332 15.5001 10.4601 15.5001 9.99984C15.5001 9.5396 15.127 9.1665 14.6667 9.1665H13.0001Z" fill="#5C59E8"/>
<path fill-rule="evenodd" clip-rule="evenodd" d="M18.8334 12.4998C18.8334 14.3408 17.341 15.8332 15.5001 15.8332C15.5001 17.2139 14.3808 18.3332 13.0001 18.3332H8.00008C6.61937 18.3332 5.50008 17.2139 5.50008 15.8332C3.65913 15.8332 2.16675 14.3408 2.16675 12.4998V9.1665C2.16675 7.32556 3.65913 5.83317 5.50008 5.83317V4.1665C5.50008 2.78579 6.61937 1.6665 8.00008 1.6665H13.0001C14.3808 1.6665 15.5001 2.78579 15.5001 4.1665L15.5001 5.83317C17.341 5.83317 18.8334 7.32556 18.8334 9.1665V12.4998ZM7.16675 4.1665C7.16675 3.70627 7.53984 3.33317 8.00008 3.33317H13.0001C13.4603 3.33317 13.8334 3.70627 13.8334 4.1665V5.83317H7.16675V4.1665ZM5.50008 7.49984H15.5001C16.4206 7.49984 17.1667 8.24603 17.1667 9.1665V12.4998C17.1667 13.4203 16.4206 14.1665 15.5001 14.1665L15.5001 12.4998H5.50008L5.50008 14.1665C4.57961 14.1665 3.83341 13.4203 3.83341 12.4998V9.1665C3.83341 8.24603 4.57961 7.49984 5.50008 7.49984ZM7.16675 15.8332V14.1665H13.8334V15.8332C13.8334 16.2934 13.4603 16.6665 13.0001 16.6665H8.00008C7.53984 16.6665 7.16675 16.2934 7.16675 15.8332Z" fill="#5C59E8"/>
</svg>
