<svg width="24" height="24" viewBox="0 0 24 24" fill="none" xmlns="http://www.w3.org/2000/svg">
<path fill-rule="evenodd" clip-rule="evenodd" d="M14.7847 16.1991C11.6462 18.6416 7.10654 18.4205 4.22181 15.5358C1.09761 12.4116 1.09761 7.34625 4.22181 4.22205C7.346 1.09786 12.4113 1.09786 15.5355 4.22205C18.4202 7.10677 18.6414 11.6464 16.1989 14.7849L20.4853 19.0713C20.8758 19.4618 20.8758 20.095 20.4853 20.4855C20.0948 20.876 19.4616 20.876 19.0711 20.4855L14.7847 16.1991ZM5.63602 14.1215C7.97917 16.4647 11.7782 16.4647 14.1213 14.1215C16.4644 11.7784 16.4644 7.97941 14.1213 5.63627C11.7782 3.29312 7.97917 3.29312 5.63602 5.63627C3.29288 7.97941 3.29288 11.7784 5.63602 14.1215Z" fill="#667085"/>
</svg>
