<svg width="24" height="24" viewBox="0 0 24 24" fill="none" xmlns="http://www.w3.org/2000/svg">
<path fill-rule="evenodd" clip-rule="evenodd" d="M9.67568 7.65674L8.0227 3.35898C7.77078 2.70398 8.25427 2 8.95604 2H15.044C15.7458 2 16.2293 2.70398 15.9773 3.35898L14.3243 7.65678L16.6946 16.1106C16.8841 16.7865 16.7053 17.5123 16.2236 18.023L12.7274 21.729C12.3327 22.1473 11.6673 22.1473 11.2726 21.729L7.77639 18.023C7.29467 17.5123 7.11592 16.7865 7.30544 16.1106L9.67568 7.65674ZM11.3736 6.5L10.4121 4H13.588L12.6264 6.5H11.3736ZM11.5164 8.5L9.23118 16.6505L12 19.5855L14.7688 16.6505L12.4836 8.5H11.5164Z" fill="#13B2E4"/>
</svg>
