<svg width="24" height="24" viewBox="0 0 24 24" fill="none" xmlns="http://www.w3.org/2000/svg">
<path fill-rule="evenodd" clip-rule="evenodd" d="M9.67574 7.65674L8.02276 3.35898C7.77084 2.70398 8.25433 2 8.95611 2H15.044C15.7458 2 16.2293 2.70398 15.9774 3.35898L14.3244 7.65678L16.6946 16.1106C16.8841 16.7865 16.7054 17.5123 16.2237 18.023L12.7275 21.729C12.3328 22.1473 11.6674 22.1473 11.2727 21.729L7.77645 18.023C7.29473 17.5123 7.11599 16.7865 7.3055 16.1106L9.67574 7.65674ZM11.3737 6.5L10.4121 4H13.588L12.6265 6.5H11.3737ZM11.5164 8.5L9.23124 16.6505L12.0001 19.5855L14.7689 16.6505L12.4837 8.5H11.5164Z" fill="#13B2E4"/>
</svg>
