<svg width="20" height="20" viewBox="0 0 20 20" fill="none" xmlns="http://www.w3.org/2000/svg">
<path d="M8.33329 8.12484C8.79353 8.12484 9.16663 8.49793 9.16663 8.95817V13.9582C9.16663 14.4184 8.79353 14.7915 8.33329 14.7915C7.87306 14.7915 7.49996 14.4184 7.49996 13.9582V8.95817C7.49996 8.49793 7.87306 8.12484 8.33329 8.12484Z" fill="#667085"/>
<path d="M12.5 8.95817C12.5 8.49793 12.1269 8.12484 11.6666 8.12484C11.2064 8.12484 10.8333 8.49793 10.8333 8.95817V13.9582C10.8333 14.4184 11.2064 14.7915 11.6666 14.7915C12.1269 14.7915 12.5 14.4184 12.5 13.9582V8.95817Z" fill="#667085"/>
<path fill-rule="evenodd" clip-rule="evenodd" d="M15 4.99984V4.1665C15 2.78579 13.8807 1.6665 12.5 1.6665H7.49996C6.11925 1.6665 4.99996 2.78579 4.99996 4.1665V4.99984H3.74996C3.28972 4.99984 2.91663 5.37293 2.91663 5.83317C2.91663 6.29341 3.28972 6.6665 3.74996 6.6665H4.16663V15.8332C4.16663 17.2139 5.28591 18.3332 6.66663 18.3332H13.3333C14.714 18.3332 15.8333 17.2139 15.8333 15.8332V6.6665H16.25C16.7102 6.6665 17.0833 6.29341 17.0833 5.83317C17.0833 5.37293 16.7102 4.99984 16.25 4.99984H15ZM12.5 3.33317H7.49996C7.03972 3.33317 6.66663 3.70627 6.66663 4.1665V4.99984H13.3333V4.1665C13.3333 3.70627 12.9602 3.33317 12.5 3.33317ZM14.1666 6.6665H5.83329V15.8332C5.83329 16.2934 6.20639 16.6665 6.66663 16.6665H13.3333C13.7935 16.6665 14.1666 16.2934 14.1666 15.8332V6.6665Z" fill="#667085"/>
</svg>
