<svg width="21" height="20" viewBox="0 0 21 20" fill="none" xmlns="http://www.w3.org/2000/svg">
<path d="M8.66667 8.12502C9.1269 8.12502 9.5 8.49812 9.5 8.95835V13.9584C9.5 14.4186 9.1269 14.7917 8.66667 14.7917C8.20643 14.7917 7.83333 14.4186 7.83333 13.9584V8.95835C7.83333 8.49812 8.20643 8.12502 8.66667 8.12502Z" fill="#667085"/>
<path d="M12.8333 8.95835C12.8333 8.49812 12.4602 8.12502 12 8.12502C11.5398 8.12502 11.1667 8.49812 11.1667 8.95835V13.9584C11.1667 14.4186 11.5398 14.7917 12 14.7917C12.4602 14.7917 12.8333 14.4186 12.8333 13.9584V8.95835Z" fill="#667085"/>
<path fill-rule="evenodd" clip-rule="evenodd" d="M15.3333 5.00002V4.16669C15.3333 2.78598 14.214 1.66669 12.8333 1.66669H7.83333C6.45262 1.66669 5.33333 2.78598 5.33333 4.16669V5.00002H4.08333C3.6231 5.00002 3.25 5.37312 3.25 5.83335C3.25 6.29359 3.6231 6.66669 4.08333 6.66669H4.5V15.8334C4.5 17.2141 5.61929 18.3334 7 18.3334H13.6667C15.0474 18.3334 16.1667 17.2141 16.1667 15.8334V6.66669H16.5833C17.0436 6.66669 17.4167 6.29359 17.4167 5.83335C17.4167 5.37312 17.0436 5.00002 16.5833 5.00002H15.3333ZM12.8333 3.33335H7.83333C7.3731 3.33335 7 3.70645 7 4.16669V5.00002H13.6667V4.16669C13.6667 3.70645 13.2936 3.33335 12.8333 3.33335ZM14.5 6.66669H6.16667V15.8334C6.16667 16.2936 6.53976 16.6667 7 16.6667H13.6667C14.1269 16.6667 14.5 16.2936 14.5 15.8334V6.66669Z" fill="#667085"/>
</svg>
