<svg width="20" height="20" viewBox="0 0 20 20" fill="none" xmlns="http://www.w3.org/2000/svg">
<path d="M8.33329 8.12533C8.79353 8.12533 9.16663 8.49842 9.16663 8.95866V13.9587C9.16663 14.4189 8.79353 14.792 8.33329 14.792C7.87306 14.792 7.49996 14.4189 7.49996 13.9587V8.95866C7.49996 8.49842 7.87306 8.12533 8.33329 8.12533Z" fill="#667085"/>
<path d="M12.5 8.95866C12.5 8.49842 12.1269 8.12533 11.6666 8.12533C11.2064 8.12533 10.8333 8.49842 10.8333 8.95866V13.9587C10.8333 14.4189 11.2064 14.792 11.6666 14.792C12.1269 14.792 12.5 14.4189 12.5 13.9587V8.95866Z" fill="#667085"/>
<path fill-rule="evenodd" clip-rule="evenodd" d="M15 5.00033V4.16699C15 2.78628 13.8807 1.66699 12.5 1.66699H7.49996C6.11925 1.66699 4.99996 2.78628 4.99996 4.16699V5.00033H3.74996C3.28972 5.00033 2.91663 5.37342 2.91663 5.83366C2.91663 6.2939 3.28972 6.66699 3.74996 6.66699H4.16663V15.8337C4.16663 17.2144 5.28591 18.3337 6.66663 18.3337H13.3333C14.714 18.3337 15.8333 17.2144 15.8333 15.8337V6.66699H16.25C16.7102 6.66699 17.0833 6.2939 17.0833 5.83366C17.0833 5.37342 16.7102 5.00033 16.25 5.00033H15ZM12.5 3.33366H7.49996C7.03972 3.33366 6.66663 3.70675 6.66663 4.16699V5.00033H13.3333V4.16699C13.3333 3.70675 12.9602 3.33366 12.5 3.33366ZM14.1666 6.66699H5.83329V15.8337C5.83329 16.2939 6.20639 16.667 6.66663 16.667H13.3333C13.7935 16.667 14.1666 16.2939 14.1666 15.8337V6.66699Z" fill="#667085"/>
</svg>
