<svg width="20" height="20" viewBox="0 0 20 20" fill="none" xmlns="http://www.w3.org/2000/svg">
<path d="M8.33329 8.12496C8.79353 8.12496 9.16663 8.49806 9.16663 8.95829V13.9583C9.16663 14.4185 8.79353 14.7916 8.33329 14.7916C7.87306 14.7916 7.49996 14.4185 7.49996 13.9583V8.95829C7.49996 8.49806 7.87306 8.12496 8.33329 8.12496Z" fill="#667085"/>
<path d="M12.5 8.95829C12.5 8.49806 12.1269 8.12496 11.6666 8.12496C11.2064 8.12496 10.8333 8.49806 10.8333 8.95829V13.9583C10.8333 14.4185 11.2064 14.7916 11.6666 14.7916C12.1269 14.7916 12.5 14.4185 12.5 13.9583V8.95829Z" fill="#667085"/>
<path fill-rule="evenodd" clip-rule="evenodd" d="M15 4.99996V4.16663C15 2.78591 13.8807 1.66663 12.5 1.66663H7.49996C6.11925 1.66663 4.99996 2.78591 4.99996 4.16663V4.99996H3.74996C3.28972 4.99996 2.91663 5.37306 2.91663 5.83329C2.91663 6.29353 3.28972 6.66663 3.74996 6.66663H4.16663V15.8333C4.16663 17.214 5.28591 18.3333 6.66663 18.3333H13.3333C14.714 18.3333 15.8333 17.214 15.8333 15.8333V6.66663H16.25C16.7102 6.66663 17.0833 6.29353 17.0833 5.83329C17.0833 5.37306 16.7102 4.99996 16.25 4.99996H15ZM12.5 3.33329H7.49996C7.03972 3.33329 6.66663 3.70639 6.66663 4.16663V4.99996H13.3333V4.16663C13.3333 3.70639 12.9602 3.33329 12.5 3.33329ZM14.1666 6.66663H5.83329V15.8333C5.83329 16.2935 6.20639 16.6666 6.66663 16.6666H13.3333C13.7935 16.6666 14.1666 16.2935 14.1666 15.8333V6.66663Z" fill="#667085"/>
</svg>
