<svg width="21" height="20" viewBox="0 0 21 20" fill="none" xmlns="http://www.w3.org/2000/svg">
<path fill-rule="evenodd" clip-rule="evenodd" d="M10.3333 9.16669C12.4043 9.16669 14.0833 7.48775 14.0833 5.41669C14.0833 3.34562 12.4043 1.66669 10.3333 1.66669C8.26218 1.66669 6.58325 3.34562 6.58325 5.41669C6.58325 7.48775 8.26218 9.16669 10.3333 9.16669ZM10.3333 7.50002C11.4838 7.50002 12.4166 6.56728 12.4166 5.41669C12.4166 4.26609 11.4838 3.33335 10.3333 3.33335C9.18266 3.33335 8.24992 4.26609 8.24992 5.41669C8.24992 6.56728 9.18266 7.50002 10.3333 7.50002Z" fill="#667085"/>
<path d="M12.064 11.6667C12.8976 11.6667 13.6731 11.9153 14.3204 12.3424C14.7046 12.5958 15.2288 12.6045 15.5542 12.279C15.8797 11.9536 15.8827 11.4203 15.514 11.1448C14.5518 10.4258 13.3576 10 12.064 10H8.60248C5.41622 10 2.83325 12.583 2.83325 15.7693C2.83325 16.7251 3.60814 17.5 4.56402 17.5H10.3333C10.7935 17.5 11.1666 17.1269 11.1666 16.6667C11.1666 16.2064 10.7935 15.8334 10.3333 15.8334H4.56402C4.52862 15.8334 4.49992 15.8047 4.49992 15.7693C4.49992 13.5035 6.3367 11.6667 8.60248 11.6667H12.064Z" fill="#667085"/>
<path d="M18.6679 13.0498C18.9715 12.7039 18.9372 12.1774 18.5913 11.8738C18.2454 11.5701 17.7189 11.6044 17.4153 11.9503L14.6473 15.1036L13.4354 14.1395C13.0752 13.853 12.5509 13.9127 12.2644 14.2729C11.9779 14.6331 12.0376 15.1573 12.3978 15.4439L14.5417 17.1493C14.7157 17.2877 14.9676 17.2652 15.1143 17.0981L18.6679 13.0498Z" fill="#667085"/>
</svg>
