<svg width="20" height="20" viewBox="0 0 20 20" fill="none" xmlns="http://www.w3.org/2000/svg">
<path fill-rule="evenodd" clip-rule="evenodd" d="M10 9.16663C12.0711 9.16663 13.75 7.48769 13.75 5.41663C13.75 3.34556 12.0711 1.66663 10 1.66663C7.92893 1.66663 6.25 3.34556 6.25 5.41663C6.25 7.48769 7.92893 9.16663 10 9.16663ZM10 7.49996C11.1506 7.49996 12.0833 6.56722 12.0833 5.41663C12.0833 4.26603 11.1506 3.33329 10 3.33329C8.84941 3.33329 7.91667 4.26603 7.91667 5.41663C7.91667 6.56722 8.84941 7.49996 10 7.49996Z" fill="#667085"/>
<path d="M11.7308 11.6666C12.5643 11.6666 13.3398 11.9152 13.9871 12.3423C14.3713 12.5958 14.8955 12.6044 15.221 12.279C15.5464 11.9535 15.5494 11.4202 15.1807 11.1447C14.2185 10.4257 13.0244 9.99996 11.7308 9.99996H8.26923C5.08297 9.99996 2.5 12.5829 2.5 15.7692C2.5 16.7251 3.27489 17.5 4.23077 17.5H10C10.4602 17.5 10.8333 17.1269 10.8333 16.6666C10.8333 16.2064 10.4602 15.8333 10 15.8333H4.23077C4.19537 15.8333 4.16667 15.8046 4.16667 15.7692C4.16667 13.5034 6.00345 11.6666 8.26923 11.6666H11.7308Z" fill="#667085"/>
<path d="M18.3346 13.0497C18.6382 12.7038 18.604 12.1773 18.2581 11.8737C17.9122 11.5701 17.3857 11.6043 17.0821 11.9502L14.3141 15.1036L13.1021 14.1395C12.7419 13.853 12.2177 13.9127 11.9312 14.2729C11.6447 14.633 11.7044 15.1573 12.0646 15.4438L14.2085 17.1493C14.3824 17.2876 14.6344 17.2651 14.781 17.098L18.3346 13.0497Z" fill="#667085"/>
</svg>
