<svg width="20" height="20" viewBox="0 0 20 20" fill="none" xmlns="http://www.w3.org/2000/svg">
<path fill-rule="evenodd" clip-rule="evenodd" d="M10 9.1665C12.0711 9.1665 13.75 7.48757 13.75 5.4165C13.75 3.34544 12.0711 1.6665 10 1.6665C7.92893 1.6665 6.25 3.34544 6.25 5.4165C6.25 7.48757 7.92893 9.1665 10 9.1665ZM10 7.49984C11.1506 7.49984 12.0833 6.5671 12.0833 5.4165C12.0833 4.26591 11.1506 3.33317 10 3.33317C8.84941 3.33317 7.91667 4.26591 7.91667 5.4165C7.91667 6.5671 8.84941 7.49984 10 7.49984Z" fill="#667085"/>
<path d="M11.7308 11.6665C12.5643 11.6665 13.3398 11.9151 13.9871 12.3422C14.3713 12.5956 14.8955 12.6043 15.221 12.2789C15.5464 11.9534 15.5494 11.4201 15.1807 11.1446C14.2185 10.4256 13.0244 9.99984 11.7308 9.99984H8.26923C5.08297 9.99984 2.5 12.5828 2.5 15.7691C2.5 16.7249 3.27489 17.4998 4.23077 17.4998H10C10.4602 17.4998 10.8333 17.1267 10.8333 16.6665C10.8333 16.2063 10.4602 15.8332 10 15.8332H4.23077C4.19537 15.8332 4.16667 15.8045 4.16667 15.7691C4.16667 13.5033 6.00345 11.6665 8.26923 11.6665H11.7308Z" fill="#667085"/>
<path d="M18.3346 13.0496C18.6382 12.7037 18.604 12.1772 18.2581 11.8736C17.9122 11.57 17.3857 11.6042 17.0821 11.9501L14.3141 15.1034L13.1021 14.1394C12.7419 13.8528 12.2177 13.9126 11.9312 14.2727C11.6447 14.6329 11.7044 15.1572 12.0646 15.4437L14.2085 17.1491C14.3824 17.2875 14.6344 17.265 14.781 17.0979L18.3346 13.0496Z" fill="#667085"/>
</svg>
