<svg width="20" height="20" viewBox="0 0 20 20" fill="none" xmlns="http://www.w3.org/2000/svg">
<path fill-rule="evenodd" clip-rule="evenodd" d="M10 9.16675C12.0711 9.16675 13.75 7.48782 13.75 5.41675C13.75 3.34568 12.0711 1.66675 10 1.66675C7.92893 1.66675 6.25 3.34568 6.25 5.41675C6.25 7.48782 7.92893 9.16675 10 9.16675ZM10 7.50008C11.1506 7.50008 12.0833 6.56734 12.0833 5.41675C12.0833 4.26615 11.1506 3.33341 10 3.33341C8.84941 3.33341 7.91667 4.26615 7.91667 5.41675C7.91667 6.56734 8.84941 7.50008 10 7.50008Z" fill="#667085"/>
<path d="M11.7308 11.6667C12.5643 11.6667 13.3398 11.9153 13.9871 12.3424C14.3713 12.5959 14.8955 12.6045 15.221 12.2791C15.5464 11.9537 15.5494 11.4203 15.1807 11.1448C14.2185 10.4258 13.0244 10.0001 11.7308 10.0001H8.26923C5.08297 10.0001 2.5 12.5831 2.5 15.7693C2.5 16.7252 3.27489 17.5001 4.23077 17.5001H10C10.4602 17.5001 10.8333 17.127 10.8333 16.6667C10.8333 16.2065 10.4602 15.8334 10 15.8334H4.23077C4.19537 15.8334 4.16667 15.8047 4.16667 15.7693C4.16667 13.5035 6.00345 11.6667 8.26923 11.6667H11.7308Z" fill="#667085"/>
<path d="M18.3346 13.0498C18.6382 12.704 18.604 12.1774 18.2581 11.8738C17.9122 11.5702 17.3857 11.6045 17.0821 11.9503L14.3141 15.1037L13.1021 14.1396C12.7419 13.8531 12.2177 13.9128 11.9312 14.273C11.6447 14.6332 11.7044 15.1574 12.0646 15.4439L14.2085 17.1494C14.3824 17.2877 14.6344 17.2652 14.781 17.0982L18.3346 13.0498Z" fill="#667085"/>
</svg>
