<svg width="24" height="24" viewBox="0 0 24 24" fill="none" xmlns="http://www.w3.org/2000/svg">
<path d="M9.17156 9.17172C9.56209 8.7812 10.1953 8.7812 10.5858 9.17172L12 10.5859L12.7071 9.87884C13.0976 9.48832 13.7308 9.48832 14.1213 9.87884C14.5118 10.2694 14.5118 10.9025 14.1213 11.2931L12.7071 12.7073C12.3166 13.0978 11.6834 13.0978 11.2929 12.7073L11.2896 12.7039L9.17156 10.5859C8.78104 10.1954 8.78104 9.56224 9.17156 9.17172Z" fill="#E46A11"/>
<path fill-rule="evenodd" clip-rule="evenodd" d="M7.91032 2.04123L11.0728 4.05375C13.4171 3.7818 15.8585 4.54499 17.6568 6.34331C19.4552 8.14163 20.2184 10.5831 19.9464 12.9273L21.9589 16.0898C22.4622 16.8807 22.3487 17.915 21.6858 18.5778L18.5776 21.686C17.9148 22.3488 16.8805 22.4624 16.0897 21.9591L12.9271 19.9466C10.5829 20.2185 8.14146 19.4553 6.34314 17.657C4.54483 15.8587 3.78164 13.4172 4.05358 11.073L2.04105 7.9105C1.53778 7.11966 1.65132 6.08538 2.31416 5.42254L5.42236 2.31434C6.0852 1.6515 7.11947 1.53797 7.91032 2.04123ZM6.34314 6.34331C5.6918 6.99465 5.17626 7.73035 4.79651 8.51525L3.72837 6.83675L6.83657 3.72855L8.51506 4.79669C7.73017 5.17644 6.99447 5.69198 6.34314 6.34331ZM15.4849 19.2036L17.1634 20.2718L20.2716 17.1636L19.2035 15.4851C18.8237 16.27 18.3082 17.0057 17.6568 17.657C17.0055 18.3084 16.2698 18.8239 15.4849 19.2036ZM16.2426 16.2428C18.5858 13.8997 18.5858 10.1007 16.2426 7.75752C13.8995 5.41438 10.1005 5.41438 7.75735 7.75752C5.41421 10.1007 5.41421 13.8997 7.75735 16.2428C10.1005 18.586 13.8995 18.586 16.2426 16.2428Z" fill="#E46A11"/>
</svg>
