<svg width="24" height="24" viewBox="0 0 24 24" fill="none" xmlns="http://www.w3.org/2000/svg">
<path d="M9.17162 9.17172C9.56215 8.7812 10.1953 8.7812 10.5858 9.17172L12.0001 10.5859L12.7072 9.87884C13.0977 9.48832 13.7308 9.48832 14.1214 9.87884C14.5119 10.2694 14.5119 10.9025 14.1214 11.2931L12.7072 12.7073C12.3166 13.0978 11.6835 13.0978 11.2929 12.7073L11.2896 12.7039L9.17162 10.5859C8.7811 10.1954 8.7811 9.56224 9.17162 9.17172Z" fill="#E46A11"/>
<path fill-rule="evenodd" clip-rule="evenodd" d="M7.91038 2.04123L11.0729 4.05375C13.4171 3.7818 15.8586 4.54499 17.6569 6.34331C19.4552 8.14163 20.2184 10.5831 19.9465 12.9273L21.959 16.0898C22.4623 16.8807 22.3487 17.915 21.6859 18.5778L18.5777 21.686C17.9149 22.3488 16.8806 22.4624 16.0897 21.9591L12.9272 19.9466C10.583 20.2185 8.14152 19.4553 6.3432 17.657C4.54489 15.8587 3.7817 13.4172 4.05364 11.073L2.04111 7.9105C1.53784 7.11966 1.65138 6.08538 2.31422 5.42254L5.42242 2.31434C6.08526 1.6515 7.11954 1.53797 7.91038 2.04123ZM6.3432 6.34331C5.69187 6.99465 5.17632 7.73035 4.79657 8.51525L3.72843 6.83675L6.83663 3.72855L8.51512 4.79669C7.73023 5.17644 6.99453 5.69198 6.3432 6.34331ZM15.485 19.2036L17.1635 20.2718L20.2717 17.1636L19.2035 15.4851C18.8238 16.27 18.3082 17.0057 17.6569 17.657C17.0056 18.3084 16.2699 18.8239 15.485 19.2036ZM16.2427 16.2428C18.5858 13.8997 18.5858 10.1007 16.2427 7.75752C13.8996 5.41438 10.1006 5.41438 7.75742 7.75752C5.41427 10.1007 5.41427 13.8997 7.75742 16.2428C10.1006 18.586 13.8996 18.586 16.2427 16.2428Z" fill="#E46A11"/>
</svg>
